<?xml version="1.0" encoding="utf-8" standalone="no"?>
<!DOCTYPE svg PUBLIC "-//W3C//DTD SVG 1.1//EN"
  "http://www.w3.org/Graphics/SVG/1.1/DTD/svg11.dtd">
<svg xmlns:xlink="http://www.w3.org/1999/xlink" width="784.525781pt" height="417.607625pt" viewBox="0 0 784.525781 417.607625" xmlns="http://www.w3.org/2000/svg" version="1.1">
 <metadata>
  <rdf:RDF xmlns:dc="http://purl.org/dc/elements/1.1/" xmlns:cc="http://creativecommons.org/ns#" xmlns:rdf="http://www.w3.org/1999/02/22-rdf-syntax-ns#">
   <cc:Work>
    <dc:type rdf:resource="http://purl.org/dc/dcmitype/StillImage"/>
    <dc:date>2026-06-01T22:18:54.895305</dc:date>
    <dc:format>image/svg+xml</dc:format>
    <dc:creator>
     <cc:Agent>
      <dc:title>Matplotlib v3.10.9, https://matplotlib.org/</dc:title>
     </cc:Agent>
    </dc:creator>
   </cc:Work>
  </rdf:RDF>
 </metadata>
 <defs>
  <style type="text/css">*{stroke-linejoin: round; stroke-linecap: butt}</style>
 </defs>
 <g id="figure_1">
  <g id="patch_1">
   <path d="M 0 417.607625 
L 784.525781 417.607625 
L 784.525781 -0 
L 0 -0 
z
" style="fill: #24273a"/>
  </g>
  <g id="axes_1">
   <g id="patch_2">
    <path d="M 129.755781 178.964 
L 777.325781 178.964 
L 777.325781 72.856 
L 129.755781 72.856 
z
" style="fill: #24273a"/>
   </g>
   <g id="matplotlib.axis_1">
    <g id="xtick_1">
     <g id="line2d_1">
      <path d="M 204.475397 178.964 
L 204.475397 72.856 
" clip-path="url(#p4859df50d8)" style="fill: none; stroke: #363a4f; stroke-width: 0.6; stroke-linecap: square"/>
     </g>
     <g id="line2d_2">
      <defs>
       <path id="mb4f8244e93" d="M 0 0 
L 0 3.5 
" style="stroke: #b8c0e0; stroke-width: 0.8"/>
      </defs>
      <g>
       <use xlink:href="#mb4f8244e93" x="204.475397" y="178.964" style="fill: #b8c0e0; stroke: #b8c0e0; stroke-width: 0.8"/>
      </g>
     </g>
     <g id="text_1">
      <!-- −2 -->
      <g style="fill: #b8c0e0" transform="translate(198.118365 193.239) scale(0.1 -0.1)">
       <defs>
        <path id="Inter-Regular-2212" d="M 3584 2091 
L 3584 1553 
L 656 1553 
L 656 2091 
L 3584 2091 
z
" transform="scale(0.015625)"/>
        <path id="Inter-Regular-32" d="M 481 0 
L 481 428 
L 2028 2106 
Q 2288 2388 2459 2600 
Q 2631 2813 2718 3005 
Q 2806 3197 2806 3413 
Q 2806 3778 2554 3990 
Q 2303 4203 1931 4203 
Q 1534 4203 1298 3965 
Q 1063 3728 1063 3334 
L 494 3334 
Q 494 3747 684 4059 
Q 875 4372 1203 4545 
Q 1531 4719 1947 4719 
Q 2363 4719 2683 4545 
Q 3003 4372 3186 4078 
Q 3369 3784 3369 3419 
Q 3369 3166 3278 2927 
Q 3188 2688 2959 2384 
Q 2731 2081 2319 1644 
L 1300 559 
L 1300 522 
L 3447 522 
L 3447 0 
L 481 0 
z
" transform="scale(0.015625)"/>
       </defs>
       <use xlink:href="#Inter-Regular-2212"/>
       <use xlink:href="#Inter-Regular-32" transform="translate(66.162109 0)"/>
      </g>
     </g>
    </g>
    <g id="xtick_2">
     <g id="line2d_3">
      <path d="M 329.008089 178.964 
L 329.008089 72.856 
" clip-path="url(#p4859df50d8)" style="fill: none; stroke: #363a4f; stroke-width: 0.6; stroke-linecap: square"/>
     </g>
     <g id="line2d_4">
      <g>
       <use xlink:href="#mb4f8244e93" x="329.008089" y="178.964" style="fill: #b8c0e0; stroke: #b8c0e0; stroke-width: 0.8"/>
      </g>
     </g>
     <g id="text_2">
      <!-- −1 -->
      <g style="fill: #b8c0e0" transform="translate(323.666683 193.239) scale(0.1 -0.1)">
       <defs>
        <path id="Inter-Regular-31" d="M 2041 4656 
L 2041 0 
L 1456 0 
L 1456 4106 
L 1425 4106 
L 300 3272 
L 300 3909 
L 1313 4656 
L 2041 4656 
z
" transform="scale(0.015625)"/>
       </defs>
       <use xlink:href="#Inter-Regular-2212"/>
       <use xlink:href="#Inter-Regular-31" transform="translate(66.162109 0)"/>
      </g>
     </g>
    </g>
    <g id="xtick_3">
     <g id="line2d_5">
      <path d="M 453.540781 178.964 
L 453.540781 72.856 
" clip-path="url(#p4859df50d8)" style="fill: none; stroke: #363a4f; stroke-width: 0.6; stroke-linecap: square"/>
     </g>
     <g id="line2d_6">
      <g>
       <use xlink:href="#mb4f8244e93" x="453.540781" y="178.964" style="fill: #b8c0e0; stroke: #b8c0e0; stroke-width: 0.8"/>
      </g>
     </g>
     <g id="text_3">
      <!-- 0 -->
      <g style="fill: #b8c0e0" transform="translate(450.386094 193.239) scale(0.1 -0.1)">
       <defs>
        <path id="Inter-Regular-30" d="M 2019 -63 
Q 1241 -63 811 562 
Q 381 1188 381 2325 
Q 381 3456 814 4087 
Q 1247 4719 2019 4719 
Q 2794 4719 3225 4087 
Q 3656 3456 3656 2325 
Q 3656 1188 3228 562 
Q 2800 -63 2019 -63 
z
M 2019 456 
Q 2531 456 2807 948 
Q 3084 1441 3084 2325 
Q 3084 3216 2807 3709 
Q 2531 4203 2019 4203 
Q 1509 4203 1231 3708 
Q 953 3213 953 2325 
Q 953 1441 1231 948 
Q 1509 456 2019 456 
z
" transform="scale(0.015625)"/>
       </defs>
       <use xlink:href="#Inter-Regular-30"/>
      </g>
     </g>
    </g>
    <g id="xtick_4">
     <g id="line2d_7">
      <path d="M 578.073474 178.964 
L 578.073474 72.856 
" clip-path="url(#p4859df50d8)" style="fill: none; stroke: #363a4f; stroke-width: 0.6; stroke-linecap: square"/>
     </g>
     <g id="line2d_8">
      <g>
       <use xlink:href="#mb4f8244e93" x="578.073474" y="178.964" style="fill: #b8c0e0; stroke: #b8c0e0; stroke-width: 0.8"/>
      </g>
     </g>
     <g id="text_4">
      <!-- 1 -->
      <g style="fill: #b8c0e0" transform="translate(576.03988 193.239) scale(0.1 -0.1)">
       <use xlink:href="#Inter-Regular-31"/>
      </g>
     </g>
    </g>
    <g id="xtick_5">
     <g id="line2d_9">
      <path d="M 702.606166 178.964 
L 702.606166 72.856 
" clip-path="url(#p4859df50d8)" style="fill: none; stroke: #363a4f; stroke-width: 0.6; stroke-linecap: square"/>
     </g>
     <g id="line2d_10">
      <g>
       <use xlink:href="#mb4f8244e93" x="702.606166" y="178.964" style="fill: #b8c0e0; stroke: #b8c0e0; stroke-width: 0.8"/>
      </g>
     </g>
     <g id="text_5">
      <!-- 2 -->
      <g style="fill: #b8c0e0" transform="translate(699.556947 193.239) scale(0.1 -0.1)">
       <use xlink:href="#Inter-Regular-32"/>
      </g>
     </g>
    </g>
    <g id="text_6">
     <!-- Δ decode tok/s  ·  (proxy − direct) / direct  ·  →  proxy faster -->
     <g style="fill: #cad3f5" transform="translate(298.259453 211.771969) scale(0.11 -0.11)">
      <defs>
       <path id="Inter-Regular-394" d="M 163 0 
L 1869 4656 
L 2500 4656 
L 4197 0 
L 163 0 
z
M 978 522 
L 3391 522 
L 2200 3894 
L 2163 3894 
L 978 522 
z
" transform="scale(0.015625)"/>
       <path id="Inter-Regular-20" transform="scale(0.015625)"/>
       <path id="Inter-Regular-64" d="M 1803 -75 
Q 1369 -75 1034 147 
Q 700 369 512 775 
Q 325 1181 325 1738 
Q 325 2291 514 2695 
Q 703 3100 1037 3319 
Q 1372 3538 1806 3538 
Q 2147 3538 2347 3425 
Q 2547 3313 2655 3170 
Q 2763 3028 2819 2934 
L 2863 2934 
L 2863 4656 
L 3425 4656 
L 3425 0 
L 2881 0 
L 2881 541 
L 2819 541 
Q 2763 444 2652 298 
Q 2541 153 2339 39 
Q 2138 -75 1803 -75 
z
M 1888 428 
Q 2363 428 2616 793 
Q 2869 1159 2869 1744 
Q 2869 2322 2620 2678 
Q 2372 3034 1888 3034 
Q 1556 3034 1336 2862 
Q 1116 2691 1006 2398 
Q 897 2106 897 1744 
Q 897 1378 1008 1079 
Q 1119 781 1341 604 
Q 1563 428 1888 428 
z
" transform="scale(0.015625)"/>
       <path id="Inter-Regular-65" d="M 1963 -75 
Q 1456 -75 1089 150 
Q 722 375 523 778 
Q 325 1181 325 1719 
Q 325 2256 519 2665 
Q 713 3075 1067 3306 
Q 1422 3538 1897 3538 
Q 2175 3538 2445 3445 
Q 2716 3353 2936 3148 
Q 3156 2944 3287 2609 
Q 3419 2275 3419 1791 
L 3419 1556 
L 894 1556 
Q 916 1009 1208 717 
Q 1500 425 1966 425 
Q 2275 425 2498 561 
Q 2722 697 2819 963 
L 3363 813 
Q 3241 416 2870 170 
Q 2500 -75 1963 -75 
z
M 897 2031 
L 2847 2031 
Q 2806 2478 2567 2758 
Q 2328 3038 1897 3038 
Q 1597 3038 1380 2897 
Q 1163 2756 1038 2528 
Q 913 2300 897 2031 
z
" transform="scale(0.015625)"/>
       <path id="Inter-Regular-63" d="M 1916 -75 
Q 1441 -75 1083 150 
Q 725 375 525 781 
Q 325 1188 325 1725 
Q 325 2272 525 2680 
Q 725 3088 1083 3313 
Q 1441 3538 1916 3538 
Q 2422 3538 2805 3283 
Q 3188 3028 3331 2572 
L 2791 2419 
Q 2713 2688 2486 2861 
Q 2259 3034 1916 3034 
Q 1566 3034 1341 2851 
Q 1116 2669 1006 2372 
Q 897 2075 897 1725 
Q 897 1381 1006 1086 
Q 1116 791 1341 609 
Q 1566 428 1916 428 
Q 2269 428 2498 608 
Q 2728 788 2806 1072 
L 3344 919 
Q 3203 453 2815 189 
Q 2428 -75 1916 -75 
z
" transform="scale(0.015625)"/>
       <path id="Inter-Regular-6f" d="M 1916 -75 
Q 1441 -75 1083 150 
Q 725 375 525 781 
Q 325 1188 325 1725 
Q 325 2272 525 2680 
Q 725 3088 1083 3313 
Q 1441 3538 1916 3538 
Q 2394 3538 2753 3313 
Q 3113 3088 3313 2680 
Q 3513 2272 3513 1725 
Q 3513 1188 3313 781 
Q 3113 375 2753 150 
Q 2394 -75 1916 -75 
z
M 1916 428 
Q 2269 428 2497 609 
Q 2725 791 2834 1086 
Q 2944 1381 2944 1725 
Q 2944 2072 2834 2370 
Q 2725 2669 2497 2851 
Q 2269 3034 1916 3034 
Q 1566 3034 1341 2851 
Q 1116 2669 1006 2372 
Q 897 2075 897 1725 
Q 897 1381 1006 1086 
Q 1116 791 1341 609 
Q 1566 428 1916 428 
z
" transform="scale(0.015625)"/>
       <path id="Inter-Regular-74" d="M 1869 3494 
L 1869 3013 
L 1150 3013 
L 1150 906 
Q 1150 672 1245 564 
Q 1341 456 1563 456 
Q 1616 456 1698 468 
Q 1781 481 1850 494 
L 1966 19 
Q 1878 -13 1767 -28 
Q 1656 -44 1547 -44 
Q 1094 -44 841 195 
Q 588 434 588 863 
L 588 3013 
L 63 3013 
L 63 3494 
L 588 3494 
L 588 4325 
L 1150 4325 
L 1150 3494 
L 1869 3494 
z
" transform="scale(0.015625)"/>
       <path id="Inter-Regular-6b" d="M 494 0 
L 494 4656 
L 1056 4656 
L 1056 1953 
L 1125 1953 
L 2619 3494 
L 3316 3494 
L 1853 1994 
L 3425 0 
L 2703 0 
L 1425 1634 
L 1056 1288 
L 1056 0 
L 494 0 
z
" transform="scale(0.015625)"/>
       <path id="Inter-Regular-2f" d="M 2163 4875 
L 663 -700 
L 144 -700 
L 1644 4875 
L 2163 4875 
z
" transform="scale(0.015625)"/>
       <path id="Inter-Regular-73" d="M 1681 -75 
Q 1144 -75 787 159 
Q 431 394 338 847 
L 872 975 
Q 947 688 1155 553 
Q 1363 419 1675 419 
Q 2041 419 2258 575 
Q 2475 731 2475 947 
Q 2475 1306 1963 1428 
L 1381 1566 
Q 444 1788 444 2519 
Q 444 2819 612 3048 
Q 781 3278 1073 3408 
Q 1366 3538 1738 3538 
Q 2278 3538 2576 3302 
Q 2875 3066 2994 2697 
L 2484 2566 
Q 2413 2753 2245 2906 
Q 2078 3059 1741 3059 
Q 1428 3059 1220 2915 
Q 1013 2772 1013 2553 
Q 1013 2359 1153 2242 
Q 1294 2125 1600 2053 
L 2128 1928 
Q 2603 1816 2831 1580 
Q 3059 1344 3059 984 
Q 3059 678 2886 439 
Q 2713 200 2402 62 
Q 2091 -75 1681 -75 
z
" transform="scale(0.015625)"/>
       <path id="Inter-Regular-b7" d="M 922 1815 
Q 747 1815 623 1938 
Q 500 2062 500 2237 
Q 500 2412 623 2535 
Q 747 2659 922 2659 
Q 1097 2659 1220 2535 
Q 1344 2412 1344 2237 
Q 1344 2062 1220 1938 
Q 1097 1815 922 1815 
z
" transform="scale(0.015625)"/>
       <path id="Inter-Regular-28" d="M 681 1897 
Q 681 2406 786 2964 
Q 891 3522 1072 4039 
Q 1253 4556 1488 4941 
L 2034 4941 
Q 1794 4450 1617 3919 
Q 1441 3388 1347 2870 
Q 1253 2353 1253 1897 
Q 1253 1275 1442 617 
Q 1631 -41 2034 -872 
L 1488 -872 
Q 1091 -194 886 509 
Q 681 1213 681 1897 
z
" transform="scale(0.015625)"/>
       <path id="Inter-Regular-70" d="M 494 -1306 
L 494 3494 
L 1038 3494 
L 1038 2934 
L 1100 2934 
Q 1159 3028 1265 3170 
Q 1372 3313 1572 3425 
Q 1772 3538 2113 3538 
Q 2550 3538 2883 3319 
Q 3216 3100 3405 2695 
Q 3594 2291 3594 1738 
Q 3594 1181 3406 775 
Q 3219 369 2886 147 
Q 2553 -75 2116 -75 
Q 1784 -75 1581 39 
Q 1378 153 1268 298 
Q 1159 444 1100 541 
L 1056 541 
L 1056 -1306 
L 494 -1306 
z
M 2031 428 
Q 2359 428 2579 604 
Q 2800 781 2911 1079 
Q 3022 1378 3022 1744 
Q 3022 2106 2912 2398 
Q 2803 2691 2583 2862 
Q 2363 3034 2031 3034 
Q 1550 3034 1300 2678 
Q 1050 2322 1050 1744 
Q 1050 1159 1303 793 
Q 1556 428 2031 428 
z
" transform="scale(0.015625)"/>
       <path id="Inter-Regular-72" d="M 494 0 
L 494 3494 
L 1038 3494 
L 1038 2956 
L 1075 2956 
Q 1172 3222 1420 3383 
Q 1669 3544 1981 3544 
Q 2044 3544 2130 3541 
Q 2216 3538 2266 3534 
L 2266 2969 
Q 2241 2975 2141 2987 
Q 2041 3000 1928 3000 
Q 1550 3000 1303 2770 
Q 1056 2541 1056 2188 
L 1056 0 
L 494 0 
z
" transform="scale(0.015625)"/>
       <path id="Inter-Regular-78" d="M 203 0 
L 1431 1794 
L 275 3494 
L 931 3494 
L 1366 2816 
Q 1484 2628 1579 2461 
Q 1675 2294 1766 2134 
Q 1850 2294 1937 2461 
Q 2025 2628 2147 2816 
L 2591 3494 
L 3234 3494 
L 2066 1763 
L 3291 0 
L 2638 0 
L 2125 784 
Q 2009 963 1918 1123 
Q 1828 1284 1741 1431 
Q 1659 1284 1575 1123 
Q 1491 963 1372 784 
L 853 0 
L 203 0 
z
" transform="scale(0.015625)"/>
       <path id="Inter-Regular-79" d="M 438 -1266 
L 581 -778 
L 641 -794 
Q 900 -863 1087 -773 
Q 1275 -684 1403 -309 
L 1503 -19 
L 169 3494 
L 784 3494 
L 1528 1422 
Q 1609 1194 1673 969 
Q 1738 744 1797 525 
Q 1856 744 1920 969 
Q 1984 1194 2066 1422 
L 2816 3494 
L 3428 3494 
L 1894 -522 
Q 1734 -938 1478 -1134 
Q 1222 -1331 850 -1331 
Q 700 -1331 590 -1309 
Q 481 -1288 438 -1266 
z
" transform="scale(0.015625)"/>
       <path id="Inter-Regular-69" d="M 494 0 
L 494 3494 
L 1056 3494 
L 1056 0 
L 494 0 
z
M 780 4066 
Q 621 4066 505 4175 
Q 389 4284 389 4438 
Q 389 4594 505 4701 
Q 621 4809 780 4809 
Q 942 4809 1058 4701 
Q 1174 4594 1174 4438 
Q 1174 4284 1058 4175 
Q 942 4066 780 4066 
z
" transform="scale(0.015625)"/>
       <path id="Inter-Regular-29" d="M 300 -872 
Q 716 -16 898 639 
Q 1081 1294 1081 1897 
Q 1081 2353 987 2870 
Q 894 3388 719 3919 
Q 544 4450 300 4941 
L 847 4941 
Q 1081 4556 1264 4039 
Q 1447 3522 1550 2962 
Q 1653 2403 1653 1897 
Q 1653 1200 1445 497 
Q 1238 -206 847 -872 
L 300 -872 
z
" transform="scale(0.015625)"/>
       <path id="Inter-Regular-2192" d="M 3438 0 
L 3075 363 
L 3734 1019 
Q 3941 1225 4216 1454 
Q 4491 1684 4725 1866 
Q 4547 1831 4367 1804 
Q 4188 1778 4006 1778 
L 800 1778 
L 800 2297 
L 4006 2297 
Q 4188 2297 4367 2270 
Q 4547 2244 4725 2209 
Q 4491 2391 4216 2620 
Q 3941 2850 3734 3056 
L 3075 3713 
L 3438 4075 
L 5475 2038 
L 3438 0 
z
" transform="scale(0.015625)"/>
       <path id="Inter-Regular-66" d="M 2119 3494 
L 2119 3013 
L 1313 3013 
L 1313 0 
L 750 0 
L 750 3013 
L 63 3013 
L 63 3494 
L 750 3494 
L 750 3959 
Q 750 4263 892 4466 
Q 1034 4669 1262 4772 
Q 1491 4875 1744 4875 
Q 1944 4875 2075 4842 
Q 2206 4809 2269 4781 
L 2113 4300 
Q 2069 4316 1998 4334 
Q 1928 4353 1809 4353 
Q 1550 4353 1431 4220 
Q 1313 4088 1313 3834 
L 1313 3494 
L 2119 3494 
z
" transform="scale(0.015625)"/>
       <path id="Inter-Regular-61" d="M 1472 -81 
Q 1141 -81 870 44 
Q 600 169 440 409 
Q 281 650 281 994 
Q 281 1294 400 1481 
Q 519 1669 717 1776 
Q 916 1884 1156 1937 
Q 1397 1991 1641 2022 
Q 1953 2063 2150 2084 
Q 2347 2106 2442 2159 
Q 2538 2213 2538 2341 
L 2538 2359 
Q 2538 2684 2353 2864 
Q 2169 3044 1806 3044 
Q 1428 3044 1215 2880 
Q 1003 2716 922 2531 
L 381 2709 
Q 516 3028 744 3208 
Q 972 3388 1247 3463 
Q 1522 3538 1791 3538 
Q 1966 3538 2189 3495 
Q 2413 3453 2620 3328 
Q 2828 3203 2964 2958 
Q 3100 2713 3100 2303 
L 3100 0 
L 2547 0 
L 2547 475 
L 2509 475 
Q 2450 353 2319 223 
Q 2188 94 1978 6 
Q 1769 -81 1472 -81 
z
M 1569 416 
Q 1881 416 2097 537 
Q 2313 659 2425 854 
Q 2538 1050 2538 1263 
L 2538 1747 
Q 2503 1706 2387 1673 
Q 2272 1641 2123 1616 
Q 1975 1591 1836 1573 
Q 1697 1556 1616 1547 
Q 1413 1522 1236 1461 
Q 1059 1400 953 1283 
Q 847 1166 847 966 
Q 847 694 1051 555 
Q 1256 416 1569 416 
z
" transform="scale(0.015625)"/>
      </defs>
      <use xlink:href="#Inter-Regular-394"/>
      <use xlink:href="#Inter-Regular-20" transform="translate(68.115234 0)"/>
      <use xlink:href="#Inter-Regular-64" transform="translate(96.240234 0)"/>
      <use xlink:href="#Inter-Regular-65" transform="translate(157.470703 0)"/>
      <use xlink:href="#Inter-Regular-63" transform="translate(215.771484 0)"/>
      <use xlink:href="#Inter-Regular-6f" transform="translate(272.900391 0)"/>
      <use xlink:href="#Inter-Regular-64" transform="translate(332.861328 0)"/>
      <use xlink:href="#Inter-Regular-65" transform="translate(394.091797 0)"/>
      <use xlink:href="#Inter-Regular-20" transform="translate(452.392578 0)"/>
      <use xlink:href="#Inter-Regular-74" transform="translate(480.517578 0)"/>
      <use xlink:href="#Inter-Regular-6f" transform="translate(513.232422 0)"/>
      <use xlink:href="#Inter-Regular-6b" transform="translate(573.193359 0)"/>
      <use xlink:href="#Inter-Regular-2f" transform="translate(628.076172 0)"/>
      <use xlink:href="#Inter-Regular-73" transform="translate(664.111328 0)"/>
      <use xlink:href="#Inter-Regular-20" transform="translate(716.894531 0)"/>
      <use xlink:href="#Inter-Regular-20" transform="translate(745.019531 0)"/>
      <use xlink:href="#Inter-Regular-b7" transform="translate(773.144531 0)"/>
      <use xlink:href="#Inter-Regular-20" transform="translate(801.953125 0)"/>
      <use xlink:href="#Inter-Regular-20" transform="translate(830.078125 0)"/>
      <use xlink:href="#Inter-Regular-28" transform="translate(858.203125 0)"/>
      <use xlink:href="#Inter-Regular-70" transform="translate(894.677734 0)"/>
      <use xlink:href="#Inter-Regular-72" transform="translate(955.908203 0)"/>
      <use xlink:href="#Inter-Regular-6f" transform="translate(993.554688 0)"/>
      <use xlink:href="#Inter-Regular-78" transform="translate(1053.515625 0)"/>
      <use xlink:href="#Inter-Regular-79" transform="translate(1108.105469 0)"/>
      <use xlink:href="#Inter-Regular-20" transform="translate(1164.306641 0)"/>
      <use xlink:href="#Inter-Regular-2212" transform="translate(1192.431641 0)"/>
      <use xlink:href="#Inter-Regular-20" transform="translate(1258.59375 0)"/>
      <use xlink:href="#Inter-Regular-64" transform="translate(1286.71875 0)"/>
      <use xlink:href="#Inter-Regular-69" transform="translate(1347.949219 0)"/>
      <use xlink:href="#Inter-Regular-72" transform="translate(1372.167969 0)"/>
      <use xlink:href="#Inter-Regular-65" transform="translate(1409.814453 0)"/>
      <use xlink:href="#Inter-Regular-63" transform="translate(1468.115234 0)"/>
      <use xlink:href="#Inter-Regular-74" transform="translate(1525.244141 0)"/>
      <use xlink:href="#Inter-Regular-29" transform="translate(1557.958984 0)"/>
      <use xlink:href="#Inter-Regular-20" transform="translate(1594.433594 0)"/>
      <use xlink:href="#Inter-Regular-2f" transform="translate(1622.558594 0)"/>
      <use xlink:href="#Inter-Regular-20" transform="translate(1658.59375 0)"/>
      <use xlink:href="#Inter-Regular-64" transform="translate(1686.71875 0)"/>
      <use xlink:href="#Inter-Regular-69" transform="translate(1747.949219 0)"/>
      <use xlink:href="#Inter-Regular-72" transform="translate(1772.167969 0)"/>
      <use xlink:href="#Inter-Regular-65" transform="translate(1809.814453 0)"/>
      <use xlink:href="#Inter-Regular-63" transform="translate(1868.115234 0)"/>
      <use xlink:href="#Inter-Regular-74" transform="translate(1925.244141 0)"/>
      <use xlink:href="#Inter-Regular-20" transform="translate(1957.958984 0)"/>
      <use xlink:href="#Inter-Regular-20" transform="translate(1986.083984 0)"/>
      <use xlink:href="#Inter-Regular-b7" transform="translate(2014.208984 0)"/>
      <use xlink:href="#Inter-Regular-20" transform="translate(2043.017578 0)"/>
      <use xlink:href="#Inter-Regular-20" transform="translate(2071.142578 0)"/>
      <use xlink:href="#Inter-Regular-2192" transform="translate(2099.267578 0)"/>
      <use xlink:href="#Inter-Regular-20" transform="translate(2194.677734 0)"/>
      <use xlink:href="#Inter-Regular-20" transform="translate(2222.802734 0)"/>
      <use xlink:href="#Inter-Regular-70" transform="translate(2250.927734 0)"/>
      <use xlink:href="#Inter-Regular-72" transform="translate(2312.158203 0)"/>
      <use xlink:href="#Inter-Regular-6f" transform="translate(2349.804688 0)"/>
      <use xlink:href="#Inter-Regular-78" transform="translate(2409.765625 0)"/>
      <use xlink:href="#Inter-Regular-79" transform="translate(2464.355469 0)"/>
      <use xlink:href="#Inter-Regular-20" transform="translate(2520.556641 0)"/>
      <use xlink:href="#Inter-Regular-66" transform="translate(2548.681641 0)"/>
      <use xlink:href="#Inter-Regular-61" transform="translate(2585.693359 0)"/>
      <use xlink:href="#Inter-Regular-73" transform="translate(2641.845703 0)"/>
      <use xlink:href="#Inter-Regular-74" transform="translate(2694.628906 0)"/>
      <use xlink:href="#Inter-Regular-65" transform="translate(2727.34375 0)"/>
      <use xlink:href="#Inter-Regular-72" transform="translate(2785.644531 0)"/>
     </g>
    </g>
   </g>
   <g id="matplotlib.axis_2">
    <g id="ytick_1">
     <g id="line2d_11">
      <defs>
       <path id="ma34fa4f892" d="M 0 0 
L -3.5 0 
" style="stroke: #b8c0e0; stroke-width: 0.8"/>
      </defs>
      <g>
       <use xlink:href="#ma34fa4f892" x="129.755781" y="160.360649" style="fill: #b8c0e0; stroke: #b8c0e0; stroke-width: 0.8"/>
      </g>
     </g>
     <g id="text_7">
      <!-- AMD APU -->
      <g style="fill: #b8c0e0" transform="translate(80.732812 159.241977) scale(0.09 -0.09)">
       <defs>
        <path id="Inter-Regular-41" d="M 163 0 
L 1853 4656 
L 2541 4656 
L 4253 0 
L 3628 0 
L 3163 1300 
L 1244 1300 
L 794 0 
L 163 0 
z
M 1425 1819 
L 2978 1819 
L 2641 2763 
Q 2556 2997 2450 3336 
Q 2344 3675 2194 4181 
Q 2047 3666 1937 3322 
Q 1828 2978 1753 2763 
L 1425 1819 
z
" transform="scale(0.015625)"/>
        <path id="Inter-Regular-4d" d="M 563 0 
L 563 4656 
L 1406 4656 
L 2553 1719 
Q 2619 1550 2716 1247 
Q 2813 944 2897 659 
Q 2978 934 3075 1239 
Q 3172 1544 3241 1719 
L 4372 4656 
L 5219 4656 
L 5219 0 
L 4634 0 
L 4634 2659 
Q 4634 2916 4640 3287 
Q 4647 3659 4656 4022 
Q 4528 3622 4398 3244 
Q 4269 2866 4188 2659 
L 3147 0 
L 2631 0 
L 1575 2659 
Q 1497 2856 1370 3229 
Q 1244 3603 1106 4013 
Q 1113 3681 1120 3304 
Q 1128 2928 1128 2659 
L 1128 0 
L 563 0 
z
" transform="scale(0.015625)"/>
        <path id="Inter-Regular-44" d="M 2016 0 
L 563 0 
L 563 4656 
L 2075 4656 
Q 2756 4656 3239 4378 
Q 3722 4100 3980 3579 
Q 4238 3059 4238 2338 
Q 4238 1609 3978 1086 
Q 3719 563 3222 281 
Q 2725 0 2016 0 
z
M 1156 525 
L 1978 525 
Q 2828 525 3245 1008 
Q 3663 1491 3663 2338 
Q 3663 3178 3253 3654 
Q 2844 4131 2034 4131 
L 1156 4131 
L 1156 525 
z
" transform="scale(0.015625)"/>
        <path id="Inter-Regular-50" d="M 563 0 
L 563 4656 
L 2156 4656 
Q 2700 4656 3051 4457 
Q 3403 4259 3573 3925 
Q 3744 3591 3744 3175 
Q 3744 2759 3573 2421 
Q 3403 2084 3053 1884 
Q 2703 1684 2159 1684 
L 1156 1684 
L 1156 0 
L 563 0 
z
M 1156 2206 
L 2131 2206 
Q 2684 2206 2918 2482 
Q 3153 2759 3153 3175 
Q 3153 3588 2918 3861 
Q 2684 4134 2125 4134 
L 1156 4134 
L 1156 2206 
z
" transform="scale(0.015625)"/>
        <path id="Inter-Regular-55" d="M 2384 -75 
Q 1834 -75 1423 140 
Q 1013 356 788 731 
Q 563 1106 563 1584 
L 563 4656 
L 1156 4656 
L 1156 1631 
Q 1156 1297 1304 1036 
Q 1453 775 1728 625 
Q 2003 475 2384 475 
Q 2766 475 3039 625 
Q 3313 775 3459 1036 
Q 3606 1297 3606 1631 
L 3606 4656 
L 4200 4656 
L 4200 1584 
Q 4200 1106 3975 731 
Q 3750 356 3342 140 
Q 2934 -75 2384 -75 
z
" transform="scale(0.015625)"/>
       </defs>
       <use xlink:href="#Inter-Regular-41"/>
       <use xlink:href="#Inter-Regular-4d" transform="translate(68.994141 0)"/>
       <use xlink:href="#Inter-Regular-44" transform="translate(159.326172 0)"/>
       <use xlink:href="#Inter-Regular-20" transform="translate(231.494141 0)"/>
       <use xlink:href="#Inter-Regular-41" transform="translate(259.619141 0)"/>
       <use xlink:href="#Inter-Regular-50" transform="translate(328.613281 0)"/>
       <use xlink:href="#Inter-Regular-55" transform="translate(392.480469 0)"/>
      </g>
      <!-- (chat_turn small, 15 reps) -->
      <g style="fill: #b8c0e0" transform="translate(16.524844 169.416477) scale(0.09 -0.09)">
       <defs>
        <path id="Inter-Regular-68" d="M 1056 2094 
L 1056 0 
L 494 0 
L 494 4656 
L 1056 4656 
L 1056 2888 
Q 1228 3238 1495 3388 
Q 1763 3538 2106 3538 
Q 2638 3538 2964 3209 
Q 3291 2881 3291 2219 
L 3291 0 
L 2725 0 
L 2725 2172 
Q 2725 2575 2514 2803 
Q 2303 3031 1938 3031 
Q 1559 3031 1307 2786 
Q 1056 2541 1056 2094 
z
" transform="scale(0.015625)"/>
        <path id="Inter-Regular-5f" d="M 2919 0 
L 2919 -519 
L 0 -519 
L 0 0 
L 2919 0 
z
" transform="scale(0.015625)"/>
        <path id="Inter-Regular-75" d="M 1678 -44 
Q 1150 -44 822 284 
Q 494 613 494 1275 
L 494 3494 
L 1056 3494 
L 1056 1322 
Q 1056 919 1268 691 
Q 1481 463 1847 463 
Q 2222 463 2473 708 
Q 2725 953 2725 1400 
L 2725 3494 
L 3291 3494 
L 3291 0 
L 2747 0 
L 2747 653 
Q 2575 272 2298 114 
Q 2022 -44 1678 -44 
z
" transform="scale(0.015625)"/>
        <path id="Inter-Regular-6e" d="M 1056 2094 
L 1056 0 
L 494 0 
L 494 3494 
L 1034 3494 
L 1038 2847 
Q 1206 3219 1479 3378 
Q 1753 3538 2106 3538 
Q 2638 3538 2963 3209 
Q 3288 2881 3288 2219 
L 3288 0 
L 2725 0 
L 2725 2172 
Q 2725 2575 2514 2803 
Q 2303 3031 1938 3031 
Q 1559 3031 1307 2786 
Q 1056 2541 1056 2094 
z
" transform="scale(0.015625)"/>
        <path id="Inter-Regular-6d" d="M 494 0 
L 494 3494 
L 1041 3494 
L 1044 2853 
Q 1172 3206 1442 3381 
Q 1713 3556 2022 3556 
Q 2366 3556 2592 3361 
Q 2819 3166 2913 2844 
Q 3038 3175 3336 3365 
Q 3634 3556 4013 3556 
Q 4316 3556 4566 3425 
Q 4816 3294 4964 3028 
Q 5113 2763 5113 2356 
L 5113 0 
L 4550 0 
L 4550 2341 
Q 4550 2719 4337 2881 
Q 4125 3044 3844 3044 
Q 3491 3044 3287 2828 
Q 3084 2613 3084 2281 
L 3084 0 
L 2522 0 
L 2522 2397 
Q 2522 2688 2328 2866 
Q 2134 3044 1838 3044 
Q 1531 3044 1293 2831 
Q 1056 2619 1056 2200 
L 1056 0 
L 494 0 
z
" transform="scale(0.015625)"/>
        <path id="Inter-Regular-6c" d="M 1056 4656 
L 1056 0 
L 494 0 
L 494 4656 
L 1056 4656 
z
" transform="scale(0.015625)"/>
        <path id="Inter-Regular-2c" d="M 404 -1148 
L 679 624 
L 1323 624 
L 835 -1148 
L 404 -1148 
z
" transform="scale(0.015625)"/>
        <path id="Inter-Regular-35" d="M 1863 -63 
Q 1453 -63 1128 98 
Q 803 259 609 539 
Q 416 819 400 1175 
L 975 1175 
Q 1003 863 1258 661 
Q 1513 459 1863 459 
Q 2144 459 2364 590 
Q 2584 722 2709 953 
Q 2834 1184 2834 1478 
Q 2834 1778 2703 2015 
Q 2572 2253 2345 2389 
Q 2119 2525 1825 2525 
Q 1609 2525 1387 2456 
Q 1166 2388 1028 2281 
L 472 2350 
L 747 4656 
L 3197 4656 
L 3197 4134 
L 1247 4134 
L 1088 2775 
L 1113 2775 
Q 1256 2894 1475 2970 
Q 1694 3047 1934 3047 
Q 2363 3047 2697 2845 
Q 3031 2644 3223 2291 
Q 3416 1938 3416 1488 
Q 3416 1041 3214 691 
Q 3013 341 2663 139 
Q 2313 -63 1863 -63 
z
" transform="scale(0.015625)"/>
       </defs>
       <use xlink:href="#Inter-Regular-28"/>
       <use xlink:href="#Inter-Regular-63" transform="translate(36.474609 0)"/>
       <use xlink:href="#Inter-Regular-68" transform="translate(93.603516 0)"/>
       <use xlink:href="#Inter-Regular-61" transform="translate(152.734375 0)"/>
       <use xlink:href="#Inter-Regular-74" transform="translate(208.886719 0)"/>
       <use xlink:href="#Inter-Regular-5f" transform="translate(241.601562 0)"/>
       <use xlink:href="#Inter-Regular-74" transform="translate(287.207031 0)"/>
       <use xlink:href="#Inter-Regular-75" transform="translate(319.921875 0)"/>
       <use xlink:href="#Inter-Regular-72" transform="translate(379.052734 0)"/>
       <use xlink:href="#Inter-Regular-6e" transform="translate(416.699219 0)"/>
       <use xlink:href="#Inter-Regular-20" transform="translate(475.78125 0)"/>
       <use xlink:href="#Inter-Regular-73" transform="translate(503.90625 0)"/>
       <use xlink:href="#Inter-Regular-6d" transform="translate(556.689453 0)"/>
       <use xlink:href="#Inter-Regular-61" transform="translate(644.287109 0)"/>
       <use xlink:href="#Inter-Regular-6c" transform="translate(700.439453 0)"/>
       <use xlink:href="#Inter-Regular-6c" transform="translate(724.658203 0)"/>
       <use xlink:href="#Inter-Regular-2c" transform="translate(748.876953 0)"/>
       <use xlink:href="#Inter-Regular-20" transform="translate(777.685547 0)"/>
       <use xlink:href="#Inter-Regular-31" transform="translate(805.810547 0)"/>
       <use xlink:href="#Inter-Regular-35" transform="translate(846.484375 0)"/>
       <use xlink:href="#Inter-Regular-20" transform="translate(905.810547 0)"/>
       <use xlink:href="#Inter-Regular-72" transform="translate(933.935547 0)"/>
       <use xlink:href="#Inter-Regular-65" transform="translate(971.582031 0)"/>
       <use xlink:href="#Inter-Regular-70" transform="translate(1029.882812 0)"/>
       <use xlink:href="#Inter-Regular-73" transform="translate(1091.113281 0)"/>
       <use xlink:href="#Inter-Regular-29" transform="translate(1143.896484 0)"/>
      </g>
     </g>
    </g>
    <g id="ytick_2">
     <g id="line2d_12">
      <g>
       <use xlink:href="#ma34fa4f892" x="129.755781" y="125.91" style="fill: #b8c0e0; stroke: #b8c0e0; stroke-width: 0.8"/>
      </g>
     </g>
     <g id="text_8">
      <!-- Apple M1 -->
      <g style="fill: #b8c0e0" transform="translate(83.775937 124.791328) scale(0.09 -0.09)">
       <use xlink:href="#Inter-Regular-41"/>
       <use xlink:href="#Inter-Regular-70" transform="translate(68.994141 0)"/>
       <use xlink:href="#Inter-Regular-70" transform="translate(130.224609 0)"/>
       <use xlink:href="#Inter-Regular-6c" transform="translate(191.455078 0)"/>
       <use xlink:href="#Inter-Regular-65" transform="translate(215.673828 0)"/>
       <use xlink:href="#Inter-Regular-20" transform="translate(273.974609 0)"/>
       <use xlink:href="#Inter-Regular-4d" transform="translate(302.099609 0)"/>
       <use xlink:href="#Inter-Regular-31" transform="translate(392.431641 0)"/>
      </g>
      <!-- (Qwen2.5-0.5B Q4, 5 reps) -->
      <g style="fill: #b8c0e0" transform="translate(7.2 134.965828) scale(0.09 -0.09)">
       <defs>
        <path id="Inter-Regular-51" d="M 2450 -63 
Q 1853 -63 1386 226 
Q 919 516 650 1052 
Q 381 1588 381 2325 
Q 381 3066 650 3602 
Q 919 4138 1386 4428 
Q 1853 4719 2450 4719 
Q 3047 4719 3512 4428 
Q 3978 4138 4245 3602 
Q 4513 3066 4513 2325 
Q 4513 1666 4295 1166 
Q 4078 666 3700 359 
L 4300 -438 
L 3681 -438 
L 3278 103 
Q 2897 -63 2450 -63 
z
M 2256 1456 
L 2875 1456 
L 3363 816 
Q 3625 1044 3779 1423 
Q 3934 1803 3934 2325 
Q 3934 2925 3736 3336 
Q 3538 3747 3202 3958 
Q 2866 4169 2450 4169 
Q 2031 4169 1693 3956 
Q 1356 3744 1157 3333 
Q 959 2922 959 2325 
Q 959 1731 1157 1322 
Q 1356 913 1693 700 
Q 2031 488 2450 488 
Q 2703 488 2931 566 
L 2256 1456 
z
" transform="scale(0.015625)"/>
        <path id="Inter-Regular-77" d="M 1278 0 
L 219 3494 
L 816 3494 
L 1241 1969 
Q 1316 1697 1403 1358 
Q 1491 1019 1575 603 
Q 1659 1003 1742 1340 
Q 1825 1678 1906 1969 
L 2325 3494 
L 2925 3494 
L 3338 1969 
Q 3413 1688 3495 1352 
Q 3578 1016 3659 613 
Q 3747 1013 3833 1348 
Q 3919 1684 3997 1969 
L 4422 3494 
L 5019 3494 
L 3959 0 
L 3400 0 
L 2947 1581 
Q 2859 1881 2779 2200 
Q 2700 2519 2619 2853 
Q 2541 2519 2458 2197 
Q 2375 1875 2291 1581 
L 1838 0 
L 1278 0 
z
" transform="scale(0.015625)"/>
        <path id="Inter-Regular-2e" d="M 922 -41 
Q 747 -41 623 82 
Q 500 206 500 381 
Q 500 556 623 679 
Q 747 803 922 803 
Q 1097 803 1220 679 
Q 1344 556 1344 381 
Q 1344 206 1220 82 
Q 1097 -41 922 -41 
z
" transform="scale(0.015625)"/>
        <path id="Inter-Regular-2d" d="M 2494 2247 
L 2494 1728 
L 450 1728 
L 450 2247 
L 2494 2247 
z
" transform="scale(0.015625)"/>
        <path id="Inter-Regular-42" d="M 563 0 
L 563 4656 
L 2213 4656 
Q 2700 4656 3017 4489 
Q 3334 4322 3489 4042 
Q 3644 3763 3644 3422 
Q 3644 3122 3537 2926 
Q 3431 2731 3257 2615 
Q 3084 2500 2881 2444 
L 2881 2400 
Q 3100 2388 3317 2250 
Q 3534 2113 3679 1859 
Q 3825 1606 3825 1241 
Q 3825 891 3664 609 
Q 3503 328 3159 164 
Q 2816 0 2266 0 
L 563 0 
z
M 1156 525 
L 2250 525 
Q 2794 525 3023 734 
Q 3253 944 3253 1247 
Q 3253 1481 3134 1678 
Q 3016 1875 2798 1994 
Q 2581 2113 2281 2113 
L 1156 2113 
L 1156 525 
z
M 1156 2613 
L 2181 2613 
Q 2556 2613 2815 2831 
Q 3075 3050 3075 3409 
Q 3075 3713 2864 3922 
Q 2653 4131 2200 4131 
L 1156 4131 
L 1156 2613 
z
" transform="scale(0.015625)"/>
        <path id="Inter-Regular-34" d="M 375 947 
L 375 1431 
L 2413 4656 
L 3134 4656 
L 3134 1469 
L 3766 1469 
L 3766 947 
L 3134 947 
L 3134 0 
L 2566 0 
L 2566 947 
L 375 947 
z
M 2569 1469 
L 2569 3913 
L 2531 3913 
L 1009 1506 
L 1009 1469 
L 2569 1469 
z
" transform="scale(0.015625)"/>
       </defs>
       <use xlink:href="#Inter-Regular-28"/>
       <use xlink:href="#Inter-Regular-51" transform="translate(36.474609 0)"/>
       <use xlink:href="#Inter-Regular-77" transform="translate(112.939453 0)"/>
       <use xlink:href="#Inter-Regular-65" transform="translate(194.775391 0)"/>
       <use xlink:href="#Inter-Regular-6e" transform="translate(253.076172 0)"/>
       <use xlink:href="#Inter-Regular-32" transform="translate(312.158203 0)"/>
       <use xlink:href="#Inter-Regular-2e" transform="translate(373.144531 0)"/>
       <use xlink:href="#Inter-Regular-35" transform="translate(401.953125 0)"/>
       <use xlink:href="#Inter-Regular-2d" transform="translate(461.279297 0)"/>
       <use xlink:href="#Inter-Regular-30" transform="translate(507.275391 0)"/>
       <use xlink:href="#Inter-Regular-2e" transform="translate(570.361328 0)"/>
       <use xlink:href="#Inter-Regular-35" transform="translate(599.169922 0)"/>
       <use xlink:href="#Inter-Regular-42" transform="translate(658.496094 0)"/>
       <use xlink:href="#Inter-Regular-20" transform="translate(723.925781 0)"/>
       <use xlink:href="#Inter-Regular-51" transform="translate(752.050781 0)"/>
       <use xlink:href="#Inter-Regular-34" transform="translate(828.515625 0)"/>
       <use xlink:href="#Inter-Regular-2c" transform="translate(893.115234 0)"/>
       <use xlink:href="#Inter-Regular-20" transform="translate(921.923828 0)"/>
       <use xlink:href="#Inter-Regular-35" transform="translate(950.048828 0)"/>
       <use xlink:href="#Inter-Regular-20" transform="translate(1009.375 0)"/>
       <use xlink:href="#Inter-Regular-72" transform="translate(1037.5 0)"/>
       <use xlink:href="#Inter-Regular-65" transform="translate(1075.146484 0)"/>
       <use xlink:href="#Inter-Regular-70" transform="translate(1133.447266 0)"/>
       <use xlink:href="#Inter-Regular-73" transform="translate(1194.677734 0)"/>
       <use xlink:href="#Inter-Regular-29" transform="translate(1247.460938 0)"/>
      </g>
     </g>
    </g>
    <g id="ytick_3">
     <g id="line2d_13">
      <g>
       <use xlink:href="#ma34fa4f892" x="129.755781" y="91.459351" style="fill: #b8c0e0; stroke: #b8c0e0; stroke-width: 0.8"/>
      </g>
     </g>
     <g id="text_9">
      <!-- RTX 3050 Ti · Vulkan -->
      <g style="fill: #b8c0e0" transform="translate(33.03 90.340679) scale(0.09 -0.09)">
       <defs>
        <path id="Inter-Regular-52" d="M 563 0 
L 563 4656 
L 2156 4656 
Q 2700 4656 3051 4470 
Q 3403 4284 3573 3959 
Q 3744 3634 3744 3219 
Q 3744 2756 3533 2412 
Q 3322 2069 2881 1916 
L 3925 0 
L 3238 0 
L 2269 1809 
Q 2216 1806 2159 1806 
L 1156 1806 
L 1156 0 
L 563 0 
z
M 1156 2334 
L 2131 2334 
Q 2681 2334 2917 2571 
Q 3153 2809 3153 3219 
Q 3153 3634 2917 3884 
Q 2681 4134 2125 4134 
L 1156 4134 
L 1156 2334 
z
" transform="scale(0.015625)"/>
        <path id="Inter-Regular-54" d="M 306 4131 
L 306 4656 
L 3825 4656 
L 3825 4131 
L 2366 4131 
L 2366 0 
L 1772 0 
L 1772 4131 
L 306 4131 
z
" transform="scale(0.015625)"/>
        <path id="Inter-Regular-58" d="M 178 0 
L 1847 2384 
L 281 4656 
L 969 4656 
L 1641 3669 
Q 1778 3469 1868 3328 
Q 1959 3188 2032 3058 
Q 2106 2928 2191 2766 
Q 2272 2928 2347 3058 
Q 2422 3188 2514 3328 
Q 2606 3469 2744 3669 
L 3428 4656 
L 4100 4656 
L 2534 2406 
L 4188 0 
L 3503 0 
L 2688 1181 
Q 2513 1438 2406 1605 
Q 2300 1772 2184 2000 
Q 2072 1778 1962 1608 
Q 1853 1438 1675 1181 
L 853 0 
L 178 0 
z
" transform="scale(0.015625)"/>
        <path id="Inter-Regular-33" d="M 1984 -63 
Q 1528 -63 1175 93 
Q 822 250 614 528 
Q 406 806 391 1175 
L 991 1175 
Q 1016 844 1297 651 
Q 1578 459 1975 459 
Q 2413 459 2698 684 
Q 2984 909 2984 1272 
Q 2984 1650 2703 1889 
Q 2422 2128 1903 2128 
L 1525 2128 
L 1525 2644 
L 1903 2644 
Q 2313 2644 2567 2861 
Q 2822 3078 2822 3438 
Q 2822 3784 2597 3993 
Q 2372 4203 1991 4203 
Q 1753 4203 1545 4117 
Q 1338 4031 1205 3872 
Q 1072 3713 1063 3484 
L 491 3484 
Q 503 3850 709 4128 
Q 916 4406 1255 4562 
Q 1594 4719 2003 4719 
Q 2438 4719 2752 4544 
Q 3066 4369 3234 4084 
Q 3403 3800 3403 3469 
Q 3403 3075 3195 2800 
Q 2988 2525 2631 2419 
L 2631 2381 
Q 3078 2309 3325 2007 
Q 3572 1706 3572 1266 
Q 3572 884 3365 584 
Q 3159 284 2800 110 
Q 2441 -63 1984 -63 
z
" transform="scale(0.015625)"/>
        <path id="Inter-Regular-56" d="M 1875 0 
L 163 4656 
L 788 4656 
L 1772 1894 
Q 1850 1678 1961 1329 
Q 2072 981 2219 481 
Q 2366 994 2477 1336 
Q 2588 1678 2663 1894 
L 3622 4656 
L 4253 4656 
L 2559 0 
L 1875 0 
z
" transform="scale(0.015625)"/>
       </defs>
       <use xlink:href="#Inter-Regular-52"/>
       <use xlink:href="#Inter-Regular-54" transform="translate(64.355469 0)"/>
       <use xlink:href="#Inter-Regular-58" transform="translate(128.90625 0)"/>
       <use xlink:href="#Inter-Regular-20" transform="translate(197.119141 0)"/>
       <use xlink:href="#Inter-Regular-33" transform="translate(225.244141 0)"/>
       <use xlink:href="#Inter-Regular-30" transform="translate(287.011719 0)"/>
       <use xlink:href="#Inter-Regular-35" transform="translate(350.097656 0)"/>
       <use xlink:href="#Inter-Regular-30" transform="translate(409.423828 0)"/>
       <use xlink:href="#Inter-Regular-20" transform="translate(472.509766 0)"/>
       <use xlink:href="#Inter-Regular-54" transform="translate(500.634766 0)"/>
       <use xlink:href="#Inter-Regular-69" transform="translate(565.185547 0)"/>
       <use xlink:href="#Inter-Regular-20" transform="translate(589.404297 0)"/>
       <use xlink:href="#Inter-Regular-b7" transform="translate(617.529297 0)"/>
       <use xlink:href="#Inter-Regular-20" transform="translate(646.337891 0)"/>
       <use xlink:href="#Inter-Regular-56" transform="translate(674.462891 0)"/>
       <use xlink:href="#Inter-Regular-75" transform="translate(743.457031 0)"/>
       <use xlink:href="#Inter-Regular-6c" transform="translate(802.587891 0)"/>
       <use xlink:href="#Inter-Regular-6b" transform="translate(826.806641 0)"/>
       <use xlink:href="#Inter-Regular-61" transform="translate(881.689453 0)"/>
       <use xlink:href="#Inter-Regular-6e" transform="translate(937.841797 0)"/>
      </g>
      <!-- (4 reps) -->
      <g style="fill: #b8c0e0" transform="translate(88.950937 100.515179) scale(0.09 -0.09)">
       <use xlink:href="#Inter-Regular-28"/>
       <use xlink:href="#Inter-Regular-34" transform="translate(36.474609 0)"/>
       <use xlink:href="#Inter-Regular-20" transform="translate(101.074219 0)"/>
       <use xlink:href="#Inter-Regular-72" transform="translate(129.199219 0)"/>
       <use xlink:href="#Inter-Regular-65" transform="translate(166.845703 0)"/>
       <use xlink:href="#Inter-Regular-70" transform="translate(225.146484 0)"/>
       <use xlink:href="#Inter-Regular-73" transform="translate(286.376953 0)"/>
       <use xlink:href="#Inter-Regular-29" transform="translate(339.160156 0)"/>
      </g>
     </g>
    </g>
   </g>
   <g id="patch_3">
    <path d="M 453.540781 174.140909 
L 453.540781 174.140909 
L 453.540781 146.58039 
L 453.540781 146.58039 
z
" clip-path="url(#p4859df50d8)" style="fill: #a6da95; stroke: #24273a; stroke-width: 0.5; stroke-linejoin: miter"/>
   </g>
   <g id="patch_4">
    <path d="M 453.540781 139.69026 
L 627.88655 139.69026 
L 627.88655 112.12974 
L 453.540781 112.12974 
z
" clip-path="url(#p4859df50d8)" style="fill: #a6da95; stroke: #24273a; stroke-width: 0.5; stroke-linejoin: miter"/>
   </g>
   <g id="patch_5">
    <path d="M 453.540781 105.23961 
L 428.634243 105.23961 
L 428.634243 77.679091 
L 453.540781 77.679091 
z
" clip-path="url(#p4859df50d8)" style="fill: #a6da95; stroke: #24273a; stroke-width: 0.5; stroke-linejoin: miter"/>
   </g>
   <g id="line2d_14">
    <path d="M 453.540781 178.964 
L 453.540781 72.856 
" clip-path="url(#p4859df50d8)" style="fill: none; stroke: #b8c0e0; stroke-width: 0.8; stroke-linecap: square"/>
   </g>
   <g id="line2d_15">
    <path d="M 391.274435 178.964 
L 391.274435 72.856 
" clip-path="url(#p4859df50d8)" style="fill: none; stroke-dasharray: 3.33,1.44; stroke-dashoffset: 0; stroke: #eed49f; stroke-opacity: 0.7; stroke-width: 0.9"/>
   </g>
   <g id="line2d_16">
    <path d="M 515.807127 178.964 
L 515.807127 72.856 
" clip-path="url(#p4859df50d8)" style="fill: none; stroke-dasharray: 3.33,1.44; stroke-dashoffset: 0; stroke: #eed49f; stroke-opacity: 0.7; stroke-width: 0.9"/>
   </g>
   <g id="line2d_17">
    <path d="M 204.475397 178.964 
L 204.475397 72.856 
" clip-path="url(#p4859df50d8)" style="fill: none; stroke-dasharray: 3.33,1.44; stroke-dashoffset: 0; stroke: #ed8796; stroke-opacity: 0.7; stroke-width: 0.9"/>
   </g>
   <g id="line2d_18">
    <path d="M 702.606166 178.964 
L 702.606166 72.856 
" clip-path="url(#p4859df50d8)" style="fill: none; stroke-dasharray: 3.33,1.44; stroke-dashoffset: 0; stroke: #ed8796; stroke-opacity: 0.7; stroke-width: 0.9"/>
   </g>
   <g id="patch_6">
    <path d="M 129.755781 178.964 
L 129.755781 72.856 
" style="fill: none; stroke: #494d64; stroke-width: 0.8; stroke-linejoin: miter; stroke-linecap: square"/>
   </g>
   <g id="patch_7">
    <path d="M 129.755781 178.964 
L 777.325781 178.964 
" style="fill: none; stroke: #494d64; stroke-width: 0.8; stroke-linejoin: miter; stroke-linecap: square"/>
   </g>
   <g id="text_10">
    <!-- +0.00% -->
    <g style="fill: #cad3f5" transform="translate(463.503397 162.716118) scale(0.09 -0.09)">
     <defs>
      <path id="Inter-Regular-2b" d="M 1853 313 
L 1853 1575 
L 609 1575 
L 609 2072 
L 1853 2072 
L 1853 3331 
L 2381 3331 
L 2381 2072 
L 3625 2072 
L 3625 1575 
L 2381 1575 
L 2381 313 
L 1853 313 
z
" transform="scale(0.015625)"/>
      <path id="Inter-Regular-25" d="M 4656 -91 
Q 4359 -91 4154 39 
Q 3950 169 3845 384 
Q 3741 600 3741 856 
L 3741 1100 
Q 3741 1356 3847 1570 
Q 3953 1784 4158 1914 
Q 4363 2044 4656 2044 
Q 4956 2044 5159 1914 
Q 5363 1784 5464 1570 
Q 5566 1356 5566 1100 
L 5566 856 
Q 5566 600 5461 384 
Q 5356 169 5154 39 
Q 4953 -91 4656 -91 
z
M 1634 2597 
Q 1338 2597 1133 2726 
Q 928 2856 823 3072 
Q 719 3288 719 3544 
L 719 3788 
Q 719 4044 825 4258 
Q 931 4472 1136 4601 
Q 1341 4731 1634 4731 
Q 1934 4731 2136 4601 
Q 2338 4472 2441 4258 
Q 2544 4044 2544 3788 
L 2544 3544 
Q 2544 3288 2439 3072 
Q 2334 2856 2132 2726 
Q 1931 2597 1634 2597 
z
M 1263 0 
L 4463 4656 
L 4991 4656 
L 1791 0 
L 1263 0 
z
M 4656 319 
Q 4894 319 4991 483 
Q 5088 647 5088 856 
L 5088 1100 
Q 5088 1306 4994 1472 
Q 4900 1638 4656 1638 
Q 4422 1638 4320 1472 
Q 4219 1306 4219 1100 
L 4219 856 
Q 4219 647 4317 483 
Q 4416 319 4656 319 
z
M 1634 3006 
Q 1872 3006 1969 3170 
Q 2066 3334 2066 3544 
L 2066 3788 
Q 2066 3994 1972 4159 
Q 1878 4325 1634 4325 
Q 1400 4325 1298 4159 
Q 1197 3994 1197 3788 
L 1197 3544 
Q 1197 3334 1295 3170 
Q 1394 3006 1634 3006 
z
" transform="scale(0.015625)"/>
     </defs>
     <use xlink:href="#Inter-Regular-2b"/>
     <use xlink:href="#Inter-Regular-30" transform="translate(66.162109 0)"/>
     <use xlink:href="#Inter-Regular-2e" transform="translate(129.248047 0)"/>
     <use xlink:href="#Inter-Regular-30" transform="translate(158.056641 0)"/>
     <use xlink:href="#Inter-Regular-30" transform="translate(221.142578 0)"/>
     <use xlink:href="#Inter-Regular-25" transform="translate(284.228516 0)"/>
    </g>
   </g>
   <g id="text_11">
    <!-- +1.40% -->
    <g style="fill: #cad3f5" transform="translate(637.849166 128.265469) scale(0.09 -0.09)">
     <use xlink:href="#Inter-Regular-2b"/>
     <use xlink:href="#Inter-Regular-31" transform="translate(66.162109 0)"/>
     <use xlink:href="#Inter-Regular-2e" transform="translate(106.835938 0)"/>
     <use xlink:href="#Inter-Regular-34" transform="translate(135.644531 0)"/>
     <use xlink:href="#Inter-Regular-30" transform="translate(200.244141 0)"/>
     <use xlink:href="#Inter-Regular-25" transform="translate(263.330078 0)"/>
    </g>
   </g>
   <g id="text_12">
    <!-- -0.20% -->
    <g style="fill: #cad3f5" transform="translate(386.256159 93.814819) scale(0.09 -0.09)">
     <use xlink:href="#Inter-Regular-2d"/>
     <use xlink:href="#Inter-Regular-30" transform="translate(45.996094 0)"/>
     <use xlink:href="#Inter-Regular-2e" transform="translate(109.082031 0)"/>
     <use xlink:href="#Inter-Regular-32" transform="translate(137.890625 0)"/>
     <use xlink:href="#Inter-Regular-30" transform="translate(198.876953 0)"/>
     <use xlink:href="#Inter-Regular-25" transform="translate(261.962891 0)"/>
    </g>
   </g>
   <g id="text_13">
    <!-- Decode  —  proxy vs direct llama-server -->
    <g style="fill: #cad3f5" transform="translate(338.998906 62.856) scale(0.12 -0.12)">
     <defs>
      <path id="Inter-Regular-2014" d="M 6400 2247 
L 6400 1728 
L 0 1728 
L 0 2247 
L 6400 2247 
z
" transform="scale(0.015625)"/>
      <path id="Inter-Regular-76" d="M 1503 0 
L 169 3494 
L 784 3494 
L 1528 1422 
Q 1609 1194 1675 967 
Q 1741 741 1800 522 
Q 1859 741 1923 967 
Q 1988 1194 2069 1422 
L 2813 3494 
L 3428 3494 
L 2094 0 
L 1503 0 
z
" transform="scale(0.015625)"/>
     </defs>
     <use xlink:href="#Inter-Regular-44"/>
     <use xlink:href="#Inter-Regular-65" transform="translate(72.167969 0)"/>
     <use xlink:href="#Inter-Regular-63" transform="translate(130.46875 0)"/>
     <use xlink:href="#Inter-Regular-6f" transform="translate(187.597656 0)"/>
     <use xlink:href="#Inter-Regular-64" transform="translate(247.558594 0)"/>
     <use xlink:href="#Inter-Regular-65" transform="translate(308.789062 0)"/>
     <use xlink:href="#Inter-Regular-20" transform="translate(367.089844 0)"/>
     <use xlink:href="#Inter-Regular-20" transform="translate(395.214844 0)"/>
     <use xlink:href="#Inter-Regular-2014" transform="translate(423.339844 0)"/>
     <use xlink:href="#Inter-Regular-20" transform="translate(523.339844 0)"/>
     <use xlink:href="#Inter-Regular-20" transform="translate(551.464844 0)"/>
     <use xlink:href="#Inter-Regular-70" transform="translate(579.589844 0)"/>
     <use xlink:href="#Inter-Regular-72" transform="translate(640.820312 0)"/>
     <use xlink:href="#Inter-Regular-6f" transform="translate(678.466797 0)"/>
     <use xlink:href="#Inter-Regular-78" transform="translate(738.427734 0)"/>
     <use xlink:href="#Inter-Regular-79" transform="translate(793.017578 0)"/>
     <use xlink:href="#Inter-Regular-20" transform="translate(849.21875 0)"/>
     <use xlink:href="#Inter-Regular-76" transform="translate(877.34375 0)"/>
     <use xlink:href="#Inter-Regular-73" transform="translate(933.544922 0)"/>
     <use xlink:href="#Inter-Regular-20" transform="translate(986.328125 0)"/>
     <use xlink:href="#Inter-Regular-64" transform="translate(1014.453125 0)"/>
     <use xlink:href="#Inter-Regular-69" transform="translate(1075.683594 0)"/>
     <use xlink:href="#Inter-Regular-72" transform="translate(1099.902344 0)"/>
     <use xlink:href="#Inter-Regular-65" transform="translate(1137.548828 0)"/>
     <use xlink:href="#Inter-Regular-63" transform="translate(1195.849609 0)"/>
     <use xlink:href="#Inter-Regular-74" transform="translate(1252.978516 0)"/>
     <use xlink:href="#Inter-Regular-20" transform="translate(1285.693359 0)"/>
     <use xlink:href="#Inter-Regular-6c" transform="translate(1313.818359 0)"/>
     <use xlink:href="#Inter-Regular-6c" transform="translate(1338.037109 0)"/>
     <use xlink:href="#Inter-Regular-61" transform="translate(1362.255859 0)"/>
     <use xlink:href="#Inter-Regular-6d" transform="translate(1418.408203 0)"/>
     <use xlink:href="#Inter-Regular-61" transform="translate(1506.005859 0)"/>
     <use xlink:href="#Inter-Regular-2d" transform="translate(1562.158203 0)"/>
     <use xlink:href="#Inter-Regular-73" transform="translate(1608.154297 0)"/>
     <use xlink:href="#Inter-Regular-65" transform="translate(1660.9375 0)"/>
     <use xlink:href="#Inter-Regular-72" transform="translate(1719.238281 0)"/>
     <use xlink:href="#Inter-Regular-76" transform="translate(1756.884766 0)"/>
     <use xlink:href="#Inter-Regular-65" transform="translate(1813.085938 0)"/>
     <use xlink:href="#Inter-Regular-72" transform="translate(1871.386719 0)"/>
    </g>
   </g>
   <g id="legend_1">
    <g id="line2d_19">
     <path d="M 682.286484 154.402984 
L 690.786484 154.402984 
L 699.286484 154.402984 
" style="fill: none; stroke-dasharray: 3.33,1.44; stroke-dashoffset: 0; stroke: #eed49f; stroke-opacity: 0.7; stroke-width: 0.9"/>
    </g>
    <g id="text_14">
     <!-- advisory ±0.5% -->
     <g style="fill: #cad3f5" transform="translate(706.086484 157.377984) scale(0.085 -0.085)">
      <defs>
       <path id="Inter-Regular-b1" d="M 644 2056 
L 644 2581 
L 1856 2581 
L 1856 3503 
L 2384 3503 
L 2384 2581 
L 3594 2581 
L 3594 2056 
L 2384 2056 
L 2384 1138 
L 1856 1138 
L 1856 2056 
L 644 2056 
z
M 644 216 
L 644 741 
L 3594 741 
L 3594 216 
L 644 216 
z
" transform="scale(0.015625)"/>
      </defs>
      <use xlink:href="#Inter-Regular-61"/>
      <use xlink:href="#Inter-Regular-64" transform="translate(56.152344 0)"/>
      <use xlink:href="#Inter-Regular-76" transform="translate(117.382812 0)"/>
      <use xlink:href="#Inter-Regular-69" transform="translate(173.583984 0)"/>
      <use xlink:href="#Inter-Regular-73" transform="translate(197.802734 0)"/>
      <use xlink:href="#Inter-Regular-6f" transform="translate(250.585938 0)"/>
      <use xlink:href="#Inter-Regular-72" transform="translate(310.546875 0)"/>
      <use xlink:href="#Inter-Regular-79" transform="translate(348.193359 0)"/>
      <use xlink:href="#Inter-Regular-20" transform="translate(404.394531 0)"/>
      <use xlink:href="#Inter-Regular-b1" transform="translate(432.519531 0)"/>
      <use xlink:href="#Inter-Regular-30" transform="translate(498.681641 0)"/>
      <use xlink:href="#Inter-Regular-2e" transform="translate(561.767578 0)"/>
      <use xlink:href="#Inter-Regular-35" transform="translate(590.576172 0)"/>
      <use xlink:href="#Inter-Regular-25" transform="translate(649.902344 0)"/>
     </g>
    </g>
    <g id="line2d_20">
     <path d="M 682.286484 166.604469 
L 690.786484 166.604469 
L 699.286484 166.604469 
" style="fill: none; stroke-dasharray: 3.33,1.44; stroke-dashoffset: 0; stroke: #ed8796; stroke-opacity: 0.7; stroke-width: 0.9"/>
    </g>
    <g id="text_15">
     <!-- hard fail ±2.0% -->
     <g style="fill: #cad3f5" transform="translate(706.086484 169.579469) scale(0.085 -0.085)">
      <use xlink:href="#Inter-Regular-68"/>
      <use xlink:href="#Inter-Regular-61" transform="translate(59.130859 0)"/>
      <use xlink:href="#Inter-Regular-72" transform="translate(115.283203 0)"/>
      <use xlink:href="#Inter-Regular-64" transform="translate(152.929688 0)"/>
      <use xlink:href="#Inter-Regular-20" transform="translate(214.160156 0)"/>
      <use xlink:href="#Inter-Regular-66" transform="translate(242.285156 0)"/>
      <use xlink:href="#Inter-Regular-61" transform="translate(279.296875 0)"/>
      <use xlink:href="#Inter-Regular-69" transform="translate(335.449219 0)"/>
      <use xlink:href="#Inter-Regular-6c" transform="translate(359.667969 0)"/>
      <use xlink:href="#Inter-Regular-20" transform="translate(383.886719 0)"/>
      <use xlink:href="#Inter-Regular-b1" transform="translate(412.011719 0)"/>
      <use xlink:href="#Inter-Regular-32" transform="translate(478.173828 0)"/>
      <use xlink:href="#Inter-Regular-2e" transform="translate(539.160156 0)"/>
      <use xlink:href="#Inter-Regular-30" transform="translate(567.96875 0)"/>
      <use xlink:href="#Inter-Regular-25" transform="translate(631.054688 0)"/>
     </g>
    </g>
   </g>
  </g>
  <g id="axes_2">
   <g id="patch_8">
    <path d="M 129.755781 375.312 
L 777.325781 375.312 
L 777.325781 269.204 
L 129.755781 269.204 
z
" style="fill: #24273a"/>
   </g>
   <g id="matplotlib.axis_3">
    <g id="xtick_6">
     <g id="line2d_21">
      <path d="M 149.992344 375.312 
L 149.992344 269.204 
" clip-path="url(#p19cb4bcf56)" style="fill: none; stroke: #363a4f; stroke-width: 0.6; stroke-linecap: square"/>
     </g>
     <g id="line2d_22">
      <g>
       <use xlink:href="#mb4f8244e93" x="149.992344" y="375.312" style="fill: #b8c0e0; stroke: #b8c0e0; stroke-width: 0.8"/>
      </g>
     </g>
     <g id="text_16">
      <!-- −1.5 -->
      <g style="fill: #b8c0e0" transform="translate(140.243906 389.587) scale(0.1 -0.1)">
       <use xlink:href="#Inter-Regular-2212"/>
       <use xlink:href="#Inter-Regular-31" transform="translate(66.162109 0)"/>
       <use xlink:href="#Inter-Regular-2e" transform="translate(106.835938 0)"/>
       <use xlink:href="#Inter-Regular-35" transform="translate(135.644531 0)"/>
      </g>
     </g>
    </g>
    <g id="xtick_7">
     <g id="line2d_23">
      <path d="M 251.175156 375.312 
L 251.175156 269.204 
" clip-path="url(#p19cb4bcf56)" style="fill: none; stroke: #363a4f; stroke-width: 0.6; stroke-linecap: square"/>
     </g>
     <g id="line2d_24">
      <g>
       <use xlink:href="#mb4f8244e93" x="251.175156" y="375.312" style="fill: #b8c0e0; stroke: #b8c0e0; stroke-width: 0.8"/>
      </g>
     </g>
     <g id="text_17">
      <!-- −1.0 -->
      <g style="fill: #b8c0e0" transform="translate(241.238437 389.587) scale(0.1 -0.1)">
       <use xlink:href="#Inter-Regular-2212"/>
       <use xlink:href="#Inter-Regular-31" transform="translate(66.162109 0)"/>
       <use xlink:href="#Inter-Regular-2e" transform="translate(106.835938 0)"/>
       <use xlink:href="#Inter-Regular-30" transform="translate(135.644531 0)"/>
      </g>
     </g>
    </g>
    <g id="xtick_8">
     <g id="line2d_25">
      <path d="M 352.357969 375.312 
L 352.357969 269.204 
" clip-path="url(#p19cb4bcf56)" style="fill: none; stroke: #363a4f; stroke-width: 0.6; stroke-linecap: square"/>
     </g>
     <g id="line2d_26">
      <g>
       <use xlink:href="#mb4f8244e93" x="352.357969" y="375.312" style="fill: #b8c0e0; stroke: #b8c0e0; stroke-width: 0.8"/>
      </g>
     </g>
     <g id="text_18">
      <!-- −0.5 -->
      <g style="fill: #b8c0e0" transform="translate(341.488437 389.587) scale(0.1 -0.1)">
       <use xlink:href="#Inter-Regular-2212"/>
       <use xlink:href="#Inter-Regular-30" transform="translate(66.162109 0)"/>
       <use xlink:href="#Inter-Regular-2e" transform="translate(129.248047 0)"/>
       <use xlink:href="#Inter-Regular-35" transform="translate(158.056641 0)"/>
      </g>
     </g>
    </g>
    <g id="xtick_9">
     <g id="line2d_27">
      <path d="M 453.540781 375.312 
L 453.540781 269.204 
" clip-path="url(#p19cb4bcf56)" style="fill: none; stroke: #363a4f; stroke-width: 0.6; stroke-linecap: square"/>
     </g>
     <g id="line2d_28">
      <g>
       <use xlink:href="#mb4f8244e93" x="453.540781" y="375.312" style="fill: #b8c0e0; stroke: #b8c0e0; stroke-width: 0.8"/>
      </g>
     </g>
     <g id="text_19">
      <!-- 0.0 -->
      <g style="fill: #b8c0e0" transform="translate(445.790781 389.587) scale(0.1 -0.1)">
       <use xlink:href="#Inter-Regular-30"/>
       <use xlink:href="#Inter-Regular-2e" transform="translate(63.085938 0)"/>
       <use xlink:href="#Inter-Regular-30" transform="translate(91.894531 0)"/>
      </g>
     </g>
    </g>
    <g id="xtick_10">
     <g id="line2d_29">
      <path d="M 554.723594 375.312 
L 554.723594 269.204 
" clip-path="url(#p19cb4bcf56)" style="fill: none; stroke: #363a4f; stroke-width: 0.6; stroke-linecap: square"/>
     </g>
     <g id="line2d_30">
      <g>
       <use xlink:href="#mb4f8244e93" x="554.723594" y="375.312" style="fill: #b8c0e0; stroke: #b8c0e0; stroke-width: 0.8"/>
      </g>
     </g>
     <g id="text_20">
      <!-- 0.5 -->
      <g style="fill: #b8c0e0" transform="translate(547.161875 389.587) scale(0.1 -0.1)">
       <use xlink:href="#Inter-Regular-30"/>
       <use xlink:href="#Inter-Regular-2e" transform="translate(63.085938 0)"/>
       <use xlink:href="#Inter-Regular-35" transform="translate(91.894531 0)"/>
      </g>
     </g>
    </g>
    <g id="xtick_11">
     <g id="line2d_31">
      <path d="M 655.906406 375.312 
L 655.906406 269.204 
" clip-path="url(#p19cb4bcf56)" style="fill: none; stroke: #363a4f; stroke-width: 0.6; stroke-linecap: square"/>
     </g>
     <g id="line2d_32">
      <g>
       <use xlink:href="#mb4f8244e93" x="655.906406" y="375.312" style="fill: #b8c0e0; stroke: #b8c0e0; stroke-width: 0.8"/>
      </g>
     </g>
     <g id="text_21">
      <!-- 1.0 -->
      <g style="fill: #b8c0e0" transform="translate(649.2775 389.587) scale(0.1 -0.1)">
       <use xlink:href="#Inter-Regular-31"/>
       <use xlink:href="#Inter-Regular-2e" transform="translate(40.673828 0)"/>
       <use xlink:href="#Inter-Regular-30" transform="translate(69.482422 0)"/>
      </g>
     </g>
    </g>
    <g id="xtick_12">
     <g id="line2d_33">
      <path d="M 757.089219 375.312 
L 757.089219 269.204 
" clip-path="url(#p19cb4bcf56)" style="fill: none; stroke: #363a4f; stroke-width: 0.6; stroke-linecap: square"/>
     </g>
     <g id="line2d_34">
      <g>
       <use xlink:href="#mb4f8244e93" x="757.089219" y="375.312" style="fill: #b8c0e0; stroke: #b8c0e0; stroke-width: 0.8"/>
      </g>
     </g>
     <g id="text_22">
      <!-- 1.5 -->
      <g style="fill: #b8c0e0" transform="translate(750.648594 389.587) scale(0.1 -0.1)">
       <use xlink:href="#Inter-Regular-31"/>
       <use xlink:href="#Inter-Regular-2e" transform="translate(40.673828 0)"/>
       <use xlink:href="#Inter-Regular-35" transform="translate(69.482422 0)"/>
      </g>
     </g>
    </g>
    <g id="text_23">
     <!-- Δ TTFT ms  ·  proxy − direct  ·  ←  proxy faster   (advisory ±30 ms and hard fail ±200 ms both off-chart) -->
     <g style="fill: #cad3f5" transform="translate(184.297734 408.119969) scale(0.11 -0.11)">
      <defs>
       <path id="Inter-Regular-46" d="M 563 0 
L 563 4656 
L 3378 4656 
L 3378 4131 
L 1156 4131 
L 1156 2538 
L 3166 2538 
L 3166 2013 
L 1156 2013 
L 1156 0 
L 563 0 
z
" transform="scale(0.015625)"/>
       <path id="Inter-Regular-2190" d="M 2669 0 
L 631 2038 
L 2669 4075 
L 3031 3713 
L 2372 3056 
Q 2166 2850 1891 2620 
Q 1616 2391 1381 2209 
Q 1559 2244 1739 2270 
Q 1919 2297 2100 2297 
L 5306 2297 
L 5306 1778 
L 2100 1778 
Q 1919 1778 1739 1804 
Q 1559 1831 1381 1866 
Q 1616 1684 1891 1454 
Q 2166 1225 2372 1019 
L 3031 363 
L 2669 0 
z
" transform="scale(0.015625)"/>
       <path id="Inter-Regular-62" d="M 2116 -75 
Q 1784 -75 1581 39 
Q 1378 153 1268 298 
Q 1159 444 1100 541 
L 1038 541 
L 1038 0 
L 494 0 
L 494 4656 
L 1056 4656 
L 1056 2934 
L 1100 2934 
Q 1159 3028 1265 3170 
Q 1372 3313 1572 3425 
Q 1772 3538 2113 3538 
Q 2550 3538 2883 3319 
Q 3216 3100 3405 2695 
Q 3594 2291 3594 1738 
Q 3594 1181 3406 775 
Q 3219 369 2886 147 
Q 2553 -75 2116 -75 
z
M 2031 428 
Q 2359 428 2579 604 
Q 2800 781 2911 1079 
Q 3022 1378 3022 1744 
Q 3022 2106 2912 2398 
Q 2803 2691 2583 2862 
Q 2363 3034 2031 3034 
Q 1550 3034 1300 2678 
Q 1050 2322 1050 1744 
Q 1050 1159 1303 793 
Q 1556 428 2031 428 
z
" transform="scale(0.015625)"/>
      </defs>
      <use xlink:href="#Inter-Regular-394"/>
      <use xlink:href="#Inter-Regular-20" transform="translate(68.115234 0)"/>
      <use xlink:href="#Inter-Regular-54" transform="translate(96.240234 0)"/>
      <use xlink:href="#Inter-Regular-54" transform="translate(160.791016 0)"/>
      <use xlink:href="#Inter-Regular-46" transform="translate(225.341797 0)"/>
      <use xlink:href="#Inter-Regular-54" transform="translate(284.375 0)"/>
      <use xlink:href="#Inter-Regular-20" transform="translate(348.925781 0)"/>
      <use xlink:href="#Inter-Regular-6d" transform="translate(377.050781 0)"/>
      <use xlink:href="#Inter-Regular-73" transform="translate(464.648438 0)"/>
      <use xlink:href="#Inter-Regular-20" transform="translate(517.431641 0)"/>
      <use xlink:href="#Inter-Regular-20" transform="translate(545.556641 0)"/>
      <use xlink:href="#Inter-Regular-b7" transform="translate(573.681641 0)"/>
      <use xlink:href="#Inter-Regular-20" transform="translate(602.490234 0)"/>
      <use xlink:href="#Inter-Regular-20" transform="translate(630.615234 0)"/>
      <use xlink:href="#Inter-Regular-70" transform="translate(658.740234 0)"/>
      <use xlink:href="#Inter-Regular-72" transform="translate(719.970703 0)"/>
      <use xlink:href="#Inter-Regular-6f" transform="translate(757.617188 0)"/>
      <use xlink:href="#Inter-Regular-78" transform="translate(817.578125 0)"/>
      <use xlink:href="#Inter-Regular-79" transform="translate(872.167969 0)"/>
      <use xlink:href="#Inter-Regular-20" transform="translate(928.369141 0)"/>
      <use xlink:href="#Inter-Regular-2212" transform="translate(956.494141 0)"/>
      <use xlink:href="#Inter-Regular-20" transform="translate(1022.65625 0)"/>
      <use xlink:href="#Inter-Regular-64" transform="translate(1050.78125 0)"/>
      <use xlink:href="#Inter-Regular-69" transform="translate(1112.011719 0)"/>
      <use xlink:href="#Inter-Regular-72" transform="translate(1136.230469 0)"/>
      <use xlink:href="#Inter-Regular-65" transform="translate(1173.876953 0)"/>
      <use xlink:href="#Inter-Regular-63" transform="translate(1232.177734 0)"/>
      <use xlink:href="#Inter-Regular-74" transform="translate(1289.306641 0)"/>
      <use xlink:href="#Inter-Regular-20" transform="translate(1322.021484 0)"/>
      <use xlink:href="#Inter-Regular-20" transform="translate(1350.146484 0)"/>
      <use xlink:href="#Inter-Regular-b7" transform="translate(1378.271484 0)"/>
      <use xlink:href="#Inter-Regular-20" transform="translate(1407.080078 0)"/>
      <use xlink:href="#Inter-Regular-20" transform="translate(1435.205078 0)"/>
      <use xlink:href="#Inter-Regular-2190" transform="translate(1463.330078 0)"/>
      <use xlink:href="#Inter-Regular-20" transform="translate(1558.740234 0)"/>
      <use xlink:href="#Inter-Regular-20" transform="translate(1586.865234 0)"/>
      <use xlink:href="#Inter-Regular-70" transform="translate(1614.990234 0)"/>
      <use xlink:href="#Inter-Regular-72" transform="translate(1676.220703 0)"/>
      <use xlink:href="#Inter-Regular-6f" transform="translate(1713.867188 0)"/>
      <use xlink:href="#Inter-Regular-78" transform="translate(1773.828125 0)"/>
      <use xlink:href="#Inter-Regular-79" transform="translate(1828.417969 0)"/>
      <use xlink:href="#Inter-Regular-20" transform="translate(1884.619141 0)"/>
      <use xlink:href="#Inter-Regular-66" transform="translate(1912.744141 0)"/>
      <use xlink:href="#Inter-Regular-61" transform="translate(1949.755859 0)"/>
      <use xlink:href="#Inter-Regular-73" transform="translate(2005.908203 0)"/>
      <use xlink:href="#Inter-Regular-74" transform="translate(2058.691406 0)"/>
      <use xlink:href="#Inter-Regular-65" transform="translate(2091.40625 0)"/>
      <use xlink:href="#Inter-Regular-72" transform="translate(2149.707031 0)"/>
      <use xlink:href="#Inter-Regular-20" transform="translate(2187.353516 0)"/>
      <use xlink:href="#Inter-Regular-20" transform="translate(2215.478516 0)"/>
      <use xlink:href="#Inter-Regular-20" transform="translate(2243.603516 0)"/>
      <use xlink:href="#Inter-Regular-28" transform="translate(2271.728516 0)"/>
      <use xlink:href="#Inter-Regular-61" transform="translate(2308.203125 0)"/>
      <use xlink:href="#Inter-Regular-64" transform="translate(2364.355469 0)"/>
      <use xlink:href="#Inter-Regular-76" transform="translate(2425.585938 0)"/>
      <use xlink:href="#Inter-Regular-69" transform="translate(2481.787109 0)"/>
      <use xlink:href="#Inter-Regular-73" transform="translate(2506.005859 0)"/>
      <use xlink:href="#Inter-Regular-6f" transform="translate(2558.789062 0)"/>
      <use xlink:href="#Inter-Regular-72" transform="translate(2618.75 0)"/>
      <use xlink:href="#Inter-Regular-79" transform="translate(2656.396484 0)"/>
      <use xlink:href="#Inter-Regular-20" transform="translate(2712.597656 0)"/>
      <use xlink:href="#Inter-Regular-b1" transform="translate(2740.722656 0)"/>
      <use xlink:href="#Inter-Regular-33" transform="translate(2806.884766 0)"/>
      <use xlink:href="#Inter-Regular-30" transform="translate(2868.652344 0)"/>
      <use xlink:href="#Inter-Regular-20" transform="translate(2931.738281 0)"/>
      <use xlink:href="#Inter-Regular-6d" transform="translate(2959.863281 0)"/>
      <use xlink:href="#Inter-Regular-73" transform="translate(3047.460938 0)"/>
      <use xlink:href="#Inter-Regular-20" transform="translate(3100.244141 0)"/>
      <use xlink:href="#Inter-Regular-61" transform="translate(3128.369141 0)"/>
      <use xlink:href="#Inter-Regular-6e" transform="translate(3184.521484 0)"/>
      <use xlink:href="#Inter-Regular-64" transform="translate(3243.603516 0)"/>
      <use xlink:href="#Inter-Regular-20" transform="translate(3304.833984 0)"/>
      <use xlink:href="#Inter-Regular-68" transform="translate(3332.958984 0)"/>
      <use xlink:href="#Inter-Regular-61" transform="translate(3392.089844 0)"/>
      <use xlink:href="#Inter-Regular-72" transform="translate(3448.242188 0)"/>
      <use xlink:href="#Inter-Regular-64" transform="translate(3485.888672 0)"/>
      <use xlink:href="#Inter-Regular-20" transform="translate(3547.119141 0)"/>
      <use xlink:href="#Inter-Regular-66" transform="translate(3575.244141 0)"/>
      <use xlink:href="#Inter-Regular-61" transform="translate(3612.255859 0)"/>
      <use xlink:href="#Inter-Regular-69" transform="translate(3668.408203 0)"/>
      <use xlink:href="#Inter-Regular-6c" transform="translate(3692.626953 0)"/>
      <use xlink:href="#Inter-Regular-20" transform="translate(3716.845703 0)"/>
      <use xlink:href="#Inter-Regular-b1" transform="translate(3744.970703 0)"/>
      <use xlink:href="#Inter-Regular-32" transform="translate(3811.132812 0)"/>
      <use xlink:href="#Inter-Regular-30" transform="translate(3872.119141 0)"/>
      <use xlink:href="#Inter-Regular-30" transform="translate(3935.205078 0)"/>
      <use xlink:href="#Inter-Regular-20" transform="translate(3998.291016 0)"/>
      <use xlink:href="#Inter-Regular-6d" transform="translate(4026.416016 0)"/>
      <use xlink:href="#Inter-Regular-73" transform="translate(4114.013672 0)"/>
      <use xlink:href="#Inter-Regular-20" transform="translate(4166.796875 0)"/>
      <use xlink:href="#Inter-Regular-62" transform="translate(4194.921875 0)"/>
      <use xlink:href="#Inter-Regular-6f" transform="translate(4256.152344 0)"/>
      <use xlink:href="#Inter-Regular-74" transform="translate(4316.113281 0)"/>
      <use xlink:href="#Inter-Regular-68" transform="translate(4348.828125 0)"/>
      <use xlink:href="#Inter-Regular-20" transform="translate(4407.958984 0)"/>
      <use xlink:href="#Inter-Regular-6f" transform="translate(4436.083984 0)"/>
      <use xlink:href="#Inter-Regular-66" transform="translate(4496.044922 0)"/>
      <use xlink:href="#Inter-Regular-66" transform="translate(4533.056641 0)"/>
      <use xlink:href="#Inter-Regular-2d" transform="translate(4570.068359 0)"/>
      <use xlink:href="#Inter-Regular-63" transform="translate(4616.064453 0)"/>
      <use xlink:href="#Inter-Regular-68" transform="translate(4673.193359 0)"/>
      <use xlink:href="#Inter-Regular-61" transform="translate(4732.324219 0)"/>
      <use xlink:href="#Inter-Regular-72" transform="translate(4788.476562 0)"/>
      <use xlink:href="#Inter-Regular-74" transform="translate(4826.123047 0)"/>
      <use xlink:href="#Inter-Regular-29" transform="translate(4858.837891 0)"/>
     </g>
    </g>
   </g>
   <g id="matplotlib.axis_4">
    <g id="ytick_4">
     <g id="line2d_35">
      <g>
       <use xlink:href="#ma34fa4f892" x="129.755781" y="356.708649" style="fill: #b8c0e0; stroke: #b8c0e0; stroke-width: 0.8"/>
      </g>
     </g>
     <g id="text_24">
      <!-- AMD APU -->
      <g style="fill: #b8c0e0" transform="translate(80.732812 355.589977) scale(0.09 -0.09)">
       <use xlink:href="#Inter-Regular-41"/>
       <use xlink:href="#Inter-Regular-4d" transform="translate(68.994141 0)"/>
       <use xlink:href="#Inter-Regular-44" transform="translate(159.326172 0)"/>
       <use xlink:href="#Inter-Regular-20" transform="translate(231.494141 0)"/>
       <use xlink:href="#Inter-Regular-41" transform="translate(259.619141 0)"/>
       <use xlink:href="#Inter-Regular-50" transform="translate(328.613281 0)"/>
       <use xlink:href="#Inter-Regular-55" transform="translate(392.480469 0)"/>
      </g>
      <!-- (chat_turn small, 15 reps) -->
      <g style="fill: #b8c0e0" transform="translate(16.524844 365.764477) scale(0.09 -0.09)">
       <use xlink:href="#Inter-Regular-28"/>
       <use xlink:href="#Inter-Regular-63" transform="translate(36.474609 0)"/>
       <use xlink:href="#Inter-Regular-68" transform="translate(93.603516 0)"/>
       <use xlink:href="#Inter-Regular-61" transform="translate(152.734375 0)"/>
       <use xlink:href="#Inter-Regular-74" transform="translate(208.886719 0)"/>
       <use xlink:href="#Inter-Regular-5f" transform="translate(241.601562 0)"/>
       <use xlink:href="#Inter-Regular-74" transform="translate(287.207031 0)"/>
       <use xlink:href="#Inter-Regular-75" transform="translate(319.921875 0)"/>
       <use xlink:href="#Inter-Regular-72" transform="translate(379.052734 0)"/>
       <use xlink:href="#Inter-Regular-6e" transform="translate(416.699219 0)"/>
       <use xlink:href="#Inter-Regular-20" transform="translate(475.78125 0)"/>
       <use xlink:href="#Inter-Regular-73" transform="translate(503.90625 0)"/>
       <use xlink:href="#Inter-Regular-6d" transform="translate(556.689453 0)"/>
       <use xlink:href="#Inter-Regular-61" transform="translate(644.287109 0)"/>
       <use xlink:href="#Inter-Regular-6c" transform="translate(700.439453 0)"/>
       <use xlink:href="#Inter-Regular-6c" transform="translate(724.658203 0)"/>
       <use xlink:href="#Inter-Regular-2c" transform="translate(748.876953 0)"/>
       <use xlink:href="#Inter-Regular-20" transform="translate(777.685547 0)"/>
       <use xlink:href="#Inter-Regular-31" transform="translate(805.810547 0)"/>
       <use xlink:href="#Inter-Regular-35" transform="translate(846.484375 0)"/>
       <use xlink:href="#Inter-Regular-20" transform="translate(905.810547 0)"/>
       <use xlink:href="#Inter-Regular-72" transform="translate(933.935547 0)"/>
       <use xlink:href="#Inter-Regular-65" transform="translate(971.582031 0)"/>
       <use xlink:href="#Inter-Regular-70" transform="translate(1029.882812 0)"/>
       <use xlink:href="#Inter-Regular-73" transform="translate(1091.113281 0)"/>
       <use xlink:href="#Inter-Regular-29" transform="translate(1143.896484 0)"/>
      </g>
     </g>
    </g>
    <g id="ytick_5">
     <g id="line2d_36">
      <g>
       <use xlink:href="#ma34fa4f892" x="129.755781" y="322.258" style="fill: #b8c0e0; stroke: #b8c0e0; stroke-width: 0.8"/>
      </g>
     </g>
     <g id="text_25">
      <!-- Apple M1 -->
      <g style="fill: #b8c0e0" transform="translate(83.775937 321.139328) scale(0.09 -0.09)">
       <use xlink:href="#Inter-Regular-41"/>
       <use xlink:href="#Inter-Regular-70" transform="translate(68.994141 0)"/>
       <use xlink:href="#Inter-Regular-70" transform="translate(130.224609 0)"/>
       <use xlink:href="#Inter-Regular-6c" transform="translate(191.455078 0)"/>
       <use xlink:href="#Inter-Regular-65" transform="translate(215.673828 0)"/>
       <use xlink:href="#Inter-Regular-20" transform="translate(273.974609 0)"/>
       <use xlink:href="#Inter-Regular-4d" transform="translate(302.099609 0)"/>
       <use xlink:href="#Inter-Regular-31" transform="translate(392.431641 0)"/>
      </g>
      <!-- (Qwen2.5-0.5B Q4, 5 reps) -->
      <g style="fill: #b8c0e0" transform="translate(7.2 331.313828) scale(0.09 -0.09)">
       <use xlink:href="#Inter-Regular-28"/>
       <use xlink:href="#Inter-Regular-51" transform="translate(36.474609 0)"/>
       <use xlink:href="#Inter-Regular-77" transform="translate(112.939453 0)"/>
       <use xlink:href="#Inter-Regular-65" transform="translate(194.775391 0)"/>
       <use xlink:href="#Inter-Regular-6e" transform="translate(253.076172 0)"/>
       <use xlink:href="#Inter-Regular-32" transform="translate(312.158203 0)"/>
       <use xlink:href="#Inter-Regular-2e" transform="translate(373.144531 0)"/>
       <use xlink:href="#Inter-Regular-35" transform="translate(401.953125 0)"/>
       <use xlink:href="#Inter-Regular-2d" transform="translate(461.279297 0)"/>
       <use xlink:href="#Inter-Regular-30" transform="translate(507.275391 0)"/>
       <use xlink:href="#Inter-Regular-2e" transform="translate(570.361328 0)"/>
       <use xlink:href="#Inter-Regular-35" transform="translate(599.169922 0)"/>
       <use xlink:href="#Inter-Regular-42" transform="translate(658.496094 0)"/>
       <use xlink:href="#Inter-Regular-20" transform="translate(723.925781 0)"/>
       <use xlink:href="#Inter-Regular-51" transform="translate(752.050781 0)"/>
       <use xlink:href="#Inter-Regular-34" transform="translate(828.515625 0)"/>
       <use xlink:href="#Inter-Regular-2c" transform="translate(893.115234 0)"/>
       <use xlink:href="#Inter-Regular-20" transform="translate(921.923828 0)"/>
       <use xlink:href="#Inter-Regular-35" transform="translate(950.048828 0)"/>
       <use xlink:href="#Inter-Regular-20" transform="translate(1009.375 0)"/>
       <use xlink:href="#Inter-Regular-72" transform="translate(1037.5 0)"/>
       <use xlink:href="#Inter-Regular-65" transform="translate(1075.146484 0)"/>
       <use xlink:href="#Inter-Regular-70" transform="translate(1133.447266 0)"/>
       <use xlink:href="#Inter-Regular-73" transform="translate(1194.677734 0)"/>
       <use xlink:href="#Inter-Regular-29" transform="translate(1247.460938 0)"/>
      </g>
     </g>
    </g>
    <g id="ytick_6">
     <g id="line2d_37">
      <g>
       <use xlink:href="#ma34fa4f892" x="129.755781" y="287.807351" style="fill: #b8c0e0; stroke: #b8c0e0; stroke-width: 0.8"/>
      </g>
     </g>
     <g id="text_26">
      <!-- RTX 3050 Ti · Vulkan -->
      <g style="fill: #b8c0e0" transform="translate(33.03 286.688679) scale(0.09 -0.09)">
       <use xlink:href="#Inter-Regular-52"/>
       <use xlink:href="#Inter-Regular-54" transform="translate(64.355469 0)"/>
       <use xlink:href="#Inter-Regular-58" transform="translate(128.90625 0)"/>
       <use xlink:href="#Inter-Regular-20" transform="translate(197.119141 0)"/>
       <use xlink:href="#Inter-Regular-33" transform="translate(225.244141 0)"/>
       <use xlink:href="#Inter-Regular-30" transform="translate(287.011719 0)"/>
       <use xlink:href="#Inter-Regular-35" transform="translate(350.097656 0)"/>
       <use xlink:href="#Inter-Regular-30" transform="translate(409.423828 0)"/>
       <use xlink:href="#Inter-Regular-20" transform="translate(472.509766 0)"/>
       <use xlink:href="#Inter-Regular-54" transform="translate(500.634766 0)"/>
       <use xlink:href="#Inter-Regular-69" transform="translate(565.185547 0)"/>
       <use xlink:href="#Inter-Regular-20" transform="translate(589.404297 0)"/>
       <use xlink:href="#Inter-Regular-b7" transform="translate(617.529297 0)"/>
       <use xlink:href="#Inter-Regular-20" transform="translate(646.337891 0)"/>
       <use xlink:href="#Inter-Regular-56" transform="translate(674.462891 0)"/>
       <use xlink:href="#Inter-Regular-75" transform="translate(743.457031 0)"/>
       <use xlink:href="#Inter-Regular-6c" transform="translate(802.587891 0)"/>
       <use xlink:href="#Inter-Regular-6b" transform="translate(826.806641 0)"/>
       <use xlink:href="#Inter-Regular-61" transform="translate(881.689453 0)"/>
       <use xlink:href="#Inter-Regular-6e" transform="translate(937.841797 0)"/>
      </g>
      <!-- (4 reps) -->
      <g style="fill: #b8c0e0" transform="translate(88.950937 296.863179) scale(0.09 -0.09)">
       <use xlink:href="#Inter-Regular-28"/>
       <use xlink:href="#Inter-Regular-34" transform="translate(36.474609 0)"/>
       <use xlink:href="#Inter-Regular-20" transform="translate(101.074219 0)"/>
       <use xlink:href="#Inter-Regular-72" transform="translate(129.199219 0)"/>
       <use xlink:href="#Inter-Regular-65" transform="translate(166.845703 0)"/>
       <use xlink:href="#Inter-Regular-70" transform="translate(225.146484 0)"/>
       <use xlink:href="#Inter-Regular-73" transform="translate(286.376953 0)"/>
       <use xlink:href="#Inter-Regular-29" transform="translate(339.160156 0)"/>
      </g>
     </g>
    </g>
   </g>
   <g id="patch_9">
    <path d="M 453.540781 370.488909 
L 544.605312 370.488909 
L 544.605312 342.92839 
L 453.540781 342.92839 
z
" clip-path="url(#p19cb4bcf56)" style="fill: #a6da95; stroke: #24273a; stroke-width: 0.5; stroke-linejoin: miter"/>
   </g>
   <g id="patch_10">
    <path d="M 453.540781 336.03826 
L 332.121406 336.03826 
L 332.121406 308.47774 
L 453.540781 308.47774 
z
" clip-path="url(#p19cb4bcf56)" style="fill: #a6da95; stroke: #24273a; stroke-width: 0.5; stroke-linejoin: miter"/>
   </g>
   <g id="patch_11">
    <path d="M 453.540781 301.58761 
L 568.889187 301.58761 
L 568.889187 274.027091 
L 453.540781 274.027091 
z
" clip-path="url(#p19cb4bcf56)" style="fill: #a6da95; stroke: #24273a; stroke-width: 0.5; stroke-linejoin: miter"/>
   </g>
   <g id="line2d_38">
    <path d="M 453.540781 375.312 
L 453.540781 269.204 
" clip-path="url(#p19cb4bcf56)" style="fill: none; stroke: #b8c0e0; stroke-width: 0.8; stroke-linecap: square"/>
   </g>
   <g id="patch_12">
    <path d="M 129.755781 375.312 
L 129.755781 269.204 
" style="fill: none; stroke: #494d64; stroke-width: 0.8; stroke-linejoin: miter; stroke-linecap: square"/>
   </g>
   <g id="patch_13">
    <path d="M 129.755781 375.312 
L 777.325781 375.312 
" style="fill: none; stroke: #494d64; stroke-width: 0.8; stroke-linejoin: miter; stroke-linecap: square"/>
   </g>
   <g id="text_27">
    <!-- +0.45 ms -->
    <g style="fill: #cad3f5" transform="translate(556.74725 359.064118) scale(0.09 -0.09)">
     <use xlink:href="#Inter-Regular-2b"/>
     <use xlink:href="#Inter-Regular-30" transform="translate(66.162109 0)"/>
     <use xlink:href="#Inter-Regular-2e" transform="translate(129.248047 0)"/>
     <use xlink:href="#Inter-Regular-34" transform="translate(158.056641 0)"/>
     <use xlink:href="#Inter-Regular-35" transform="translate(222.65625 0)"/>
     <use xlink:href="#Inter-Regular-20" transform="translate(281.982422 0)"/>
     <use xlink:href="#Inter-Regular-6d" transform="translate(310.107422 0)"/>
     <use xlink:href="#Inter-Regular-73" transform="translate(397.705078 0)"/>
    </g>
   </g>
   <g id="text_28">
    <!-- -0.60 ms -->
    <g style="fill: #cad3f5" transform="translate(281.143063 324.613469) scale(0.09 -0.09)">
     <defs>
      <path id="Inter-Regular-36" d="M 2019 -63 
Q 1728 -63 1437 43 
Q 1147 150 908 400 
Q 669 650 525 1078 
Q 381 1506 381 2150 
Q 381 3378 840 4048 
Q 1300 4719 2091 4719 
Q 2481 4719 2790 4562 
Q 3100 4406 3297 4128 
Q 3494 3850 3550 3484 
L 2969 3484 
Q 2891 3788 2672 3991 
Q 2453 4194 2091 4194 
Q 1553 4194 1248 3730 
Q 944 3266 944 2425 
L 981 2425 
Q 1169 2716 1467 2880 
Q 1766 3044 2128 3044 
Q 2528 3044 2859 2847 
Q 3191 2650 3389 2301 
Q 3588 1953 3588 1503 
Q 3588 1069 3394 714 
Q 3200 359 2847 148 
Q 2494 -63 2019 -63 
z
M 2019 459 
Q 2300 459 2525 600 
Q 2750 741 2881 977 
Q 3013 1213 3013 1503 
Q 3013 1788 2886 2020 
Q 2759 2253 2537 2390 
Q 2316 2528 2034 2528 
Q 1753 2528 1525 2384 
Q 1297 2241 1162 2005 
Q 1028 1769 1028 1497 
Q 1028 1222 1156 986 
Q 1284 750 1509 604 
Q 1734 459 2019 459 
z
" transform="scale(0.015625)"/>
     </defs>
     <use xlink:href="#Inter-Regular-2d"/>
     <use xlink:href="#Inter-Regular-30" transform="translate(45.996094 0)"/>
     <use xlink:href="#Inter-Regular-2e" transform="translate(109.082031 0)"/>
     <use xlink:href="#Inter-Regular-36" transform="translate(137.890625 0)"/>
     <use xlink:href="#Inter-Regular-30" transform="translate(199.902344 0)"/>
     <use xlink:href="#Inter-Regular-20" transform="translate(262.988281 0)"/>
     <use xlink:href="#Inter-Regular-6d" transform="translate(291.113281 0)"/>
     <use xlink:href="#Inter-Regular-73" transform="translate(378.710938 0)"/>
    </g>
   </g>
   <g id="text_29">
    <!-- +0.57 ms -->
    <g style="fill: #cad3f5" transform="translate(581.031125 290.162819) scale(0.09 -0.09)">
     <defs>
      <path id="Inter-Regular-37" d="M 625 0 
L 2694 4097 
L 2694 4134 
L 306 4134 
L 306 4656 
L 3316 4656 
L 3316 4103 
L 1250 0 
L 625 0 
z
" transform="scale(0.015625)"/>
     </defs>
     <use xlink:href="#Inter-Regular-2b"/>
     <use xlink:href="#Inter-Regular-30" transform="translate(66.162109 0)"/>
     <use xlink:href="#Inter-Regular-2e" transform="translate(129.248047 0)"/>
     <use xlink:href="#Inter-Regular-35" transform="translate(158.056641 0)"/>
     <use xlink:href="#Inter-Regular-37" transform="translate(217.382812 0)"/>
     <use xlink:href="#Inter-Regular-20" transform="translate(273.974609 0)"/>
     <use xlink:href="#Inter-Regular-6d" transform="translate(302.099609 0)"/>
     <use xlink:href="#Inter-Regular-73" transform="translate(389.697266 0)"/>
    </g>
   </g>
   <g id="text_30">
    <!-- First token  —  proxy vs direct llama-server -->
    <g style="fill: #cad3f5" transform="translate(331.056406 259.204) scale(0.12 -0.12)">
     <use xlink:href="#Inter-Regular-46"/>
     <use xlink:href="#Inter-Regular-69" transform="translate(59.033203 0)"/>
     <use xlink:href="#Inter-Regular-72" transform="translate(83.251953 0)"/>
     <use xlink:href="#Inter-Regular-73" transform="translate(120.898438 0)"/>
     <use xlink:href="#Inter-Regular-74" transform="translate(173.681641 0)"/>
     <use xlink:href="#Inter-Regular-20" transform="translate(206.396484 0)"/>
     <use xlink:href="#Inter-Regular-74" transform="translate(234.521484 0)"/>
     <use xlink:href="#Inter-Regular-6f" transform="translate(267.236328 0)"/>
     <use xlink:href="#Inter-Regular-6b" transform="translate(327.197266 0)"/>
     <use xlink:href="#Inter-Regular-65" transform="translate(382.080078 0)"/>
     <use xlink:href="#Inter-Regular-6e" transform="translate(440.380859 0)"/>
     <use xlink:href="#Inter-Regular-20" transform="translate(499.462891 0)"/>
     <use xlink:href="#Inter-Regular-20" transform="translate(527.587891 0)"/>
     <use xlink:href="#Inter-Regular-2014" transform="translate(555.712891 0)"/>
     <use xlink:href="#Inter-Regular-20" transform="translate(655.712891 0)"/>
     <use xlink:href="#Inter-Regular-20" transform="translate(683.837891 0)"/>
     <use xlink:href="#Inter-Regular-70" transform="translate(711.962891 0)"/>
     <use xlink:href="#Inter-Regular-72" transform="translate(773.193359 0)"/>
     <use xlink:href="#Inter-Regular-6f" transform="translate(810.839844 0)"/>
     <use xlink:href="#Inter-Regular-78" transform="translate(870.800781 0)"/>
     <use xlink:href="#Inter-Regular-79" transform="translate(925.390625 0)"/>
     <use xlink:href="#Inter-Regular-20" transform="translate(981.591797 0)"/>
     <use xlink:href="#Inter-Regular-76" transform="translate(1009.716797 0)"/>
     <use xlink:href="#Inter-Regular-73" transform="translate(1065.917969 0)"/>
     <use xlink:href="#Inter-Regular-20" transform="translate(1118.701172 0)"/>
     <use xlink:href="#Inter-Regular-64" transform="translate(1146.826172 0)"/>
     <use xlink:href="#Inter-Regular-69" transform="translate(1208.056641 0)"/>
     <use xlink:href="#Inter-Regular-72" transform="translate(1232.275391 0)"/>
     <use xlink:href="#Inter-Regular-65" transform="translate(1269.921875 0)"/>
     <use xlink:href="#Inter-Regular-63" transform="translate(1328.222656 0)"/>
     <use xlink:href="#Inter-Regular-74" transform="translate(1385.351562 0)"/>
     <use xlink:href="#Inter-Regular-20" transform="translate(1418.066406 0)"/>
     <use xlink:href="#Inter-Regular-6c" transform="translate(1446.191406 0)"/>
     <use xlink:href="#Inter-Regular-6c" transform="translate(1470.410156 0)"/>
     <use xlink:href="#Inter-Regular-61" transform="translate(1494.628906 0)"/>
     <use xlink:href="#Inter-Regular-6d" transform="translate(1550.78125 0)"/>
     <use xlink:href="#Inter-Regular-61" transform="translate(1638.378906 0)"/>
     <use xlink:href="#Inter-Regular-2d" transform="translate(1694.53125 0)"/>
     <use xlink:href="#Inter-Regular-73" transform="translate(1740.527344 0)"/>
     <use xlink:href="#Inter-Regular-65" transform="translate(1793.310547 0)"/>
     <use xlink:href="#Inter-Regular-72" transform="translate(1851.611328 0)"/>
     <use xlink:href="#Inter-Regular-76" transform="translate(1889.257812 0)"/>
     <use xlink:href="#Inter-Regular-65" transform="translate(1945.458984 0)"/>
     <use xlink:href="#Inter-Regular-72" transform="translate(2003.759766 0)"/>
    </g>
   </g>
  </g>
  <g id="text_31">
   <!-- Suite C — proxy overhead  ·  every cell is sub-millisecond TTFT and inside the advisory decode floor -->
   <g style="fill: #cad3f5" transform="translate(106.449844 16.340625) scale(0.12 -0.12)">
    <defs>
     <path id="Inter-Regular-53" d="M 2053 -81 
Q 1297 -81 850 276 
Q 403 634 363 1219 
L 972 1219 
Q 997 956 1150 786 
Q 1303 616 1542 533 
Q 1781 450 2053 450 
Q 2369 450 2620 553 
Q 2872 656 3019 843 
Q 3166 1031 3166 1278 
Q 3166 1503 3039 1643 
Q 2913 1784 2703 1875 
Q 2494 1966 2244 2034 
L 1681 2194 
Q 1119 2353 806 2650 
Q 494 2947 494 3409 
Q 494 3803 706 4098 
Q 919 4394 1281 4556 
Q 1644 4719 2094 4719 
Q 2553 4719 2906 4556 
Q 3259 4394 3464 4114 
Q 3669 3834 3681 3481 
L 3100 3481 
Q 3059 3822 2775 4008 
Q 2491 4194 2075 4194 
Q 1622 4194 1347 3980 
Q 1072 3766 1072 3438 
Q 1072 3194 1223 3045 
Q 1375 2897 1583 2814 
Q 1791 2731 1959 2684 
L 2425 2556 
Q 2613 2506 2839 2418 
Q 3066 2331 3272 2186 
Q 3478 2041 3611 1817 
Q 3744 1594 3744 1269 
Q 3744 888 3545 581 
Q 3347 275 2969 97 
Q 2591 -81 2053 -81 
z
" transform="scale(0.015625)"/>
     <path id="Inter-Regular-43" d="M 2447 -63 
Q 1850 -63 1383 226 
Q 916 516 648 1052 
Q 381 1588 381 2325 
Q 381 3066 648 3602 
Q 916 4138 1383 4428 
Q 1850 4719 2447 4719 
Q 2919 4719 3314 4536 
Q 3709 4353 3976 4012 
Q 4244 3672 4325 3191 
L 3731 3191 
Q 3666 3509 3477 3728 
Q 3288 3947 3019 4058 
Q 2750 4169 2447 4169 
Q 2028 4169 1690 3956 
Q 1353 3744 1156 3333 
Q 959 2922 959 2325 
Q 959 1731 1157 1320 
Q 1356 909 1693 698 
Q 2031 488 2447 488 
Q 2753 488 3020 600 
Q 3288 713 3477 931 
Q 3666 1150 3731 1466 
L 4325 1466 
Q 4244 994 3980 650 
Q 3716 306 3320 121 
Q 2925 -63 2447 -63 
z
" transform="scale(0.015625)"/>
    </defs>
    <use xlink:href="#Inter-Regular-53"/>
    <use xlink:href="#Inter-Regular-75" transform="translate(64.160156 0)"/>
    <use xlink:href="#Inter-Regular-69" transform="translate(123.291016 0)"/>
    <use xlink:href="#Inter-Regular-74" transform="translate(147.509766 0)"/>
    <use xlink:href="#Inter-Regular-65" transform="translate(180.224609 0)"/>
    <use xlink:href="#Inter-Regular-20" transform="translate(238.525391 0)"/>
    <use xlink:href="#Inter-Regular-43" transform="translate(266.650391 0)"/>
    <use xlink:href="#Inter-Regular-20" transform="translate(339.697266 0)"/>
    <use xlink:href="#Inter-Regular-2014" transform="translate(367.822266 0)"/>
    <use xlink:href="#Inter-Regular-20" transform="translate(467.822266 0)"/>
    <use xlink:href="#Inter-Regular-70" transform="translate(495.947266 0)"/>
    <use xlink:href="#Inter-Regular-72" transform="translate(557.177734 0)"/>
    <use xlink:href="#Inter-Regular-6f" transform="translate(594.824219 0)"/>
    <use xlink:href="#Inter-Regular-78" transform="translate(654.785156 0)"/>
    <use xlink:href="#Inter-Regular-79" transform="translate(709.375 0)"/>
    <use xlink:href="#Inter-Regular-20" transform="translate(765.576172 0)"/>
    <use xlink:href="#Inter-Regular-6f" transform="translate(793.701172 0)"/>
    <use xlink:href="#Inter-Regular-76" transform="translate(853.662109 0)"/>
    <use xlink:href="#Inter-Regular-65" transform="translate(909.863281 0)"/>
    <use xlink:href="#Inter-Regular-72" transform="translate(968.164062 0)"/>
    <use xlink:href="#Inter-Regular-68" transform="translate(1005.810547 0)"/>
    <use xlink:href="#Inter-Regular-65" transform="translate(1064.941406 0)"/>
    <use xlink:href="#Inter-Regular-61" transform="translate(1123.242188 0)"/>
    <use xlink:href="#Inter-Regular-64" transform="translate(1179.394531 0)"/>
    <use xlink:href="#Inter-Regular-20" transform="translate(1240.625 0)"/>
    <use xlink:href="#Inter-Regular-20" transform="translate(1268.75 0)"/>
    <use xlink:href="#Inter-Regular-b7" transform="translate(1296.875 0)"/>
    <use xlink:href="#Inter-Regular-20" transform="translate(1325.683594 0)"/>
    <use xlink:href="#Inter-Regular-20" transform="translate(1353.808594 0)"/>
    <use xlink:href="#Inter-Regular-65" transform="translate(1381.933594 0)"/>
    <use xlink:href="#Inter-Regular-76" transform="translate(1440.234375 0)"/>
    <use xlink:href="#Inter-Regular-65" transform="translate(1496.435547 0)"/>
    <use xlink:href="#Inter-Regular-72" transform="translate(1554.736328 0)"/>
    <use xlink:href="#Inter-Regular-79" transform="translate(1592.382812 0)"/>
    <use xlink:href="#Inter-Regular-20" transform="translate(1648.583984 0)"/>
    <use xlink:href="#Inter-Regular-63" transform="translate(1676.708984 0)"/>
    <use xlink:href="#Inter-Regular-65" transform="translate(1733.837891 0)"/>
    <use xlink:href="#Inter-Regular-6c" transform="translate(1792.138672 0)"/>
    <use xlink:href="#Inter-Regular-6c" transform="translate(1816.357422 0)"/>
    <use xlink:href="#Inter-Regular-20" transform="translate(1840.576172 0)"/>
    <use xlink:href="#Inter-Regular-69" transform="translate(1868.701172 0)"/>
    <use xlink:href="#Inter-Regular-73" transform="translate(1892.919922 0)"/>
    <use xlink:href="#Inter-Regular-20" transform="translate(1945.703125 0)"/>
    <use xlink:href="#Inter-Regular-73" transform="translate(1973.828125 0)"/>
    <use xlink:href="#Inter-Regular-75" transform="translate(2026.611328 0)"/>
    <use xlink:href="#Inter-Regular-62" transform="translate(2085.742188 0)"/>
    <use xlink:href="#Inter-Regular-2d" transform="translate(2146.972656 0)"/>
    <use xlink:href="#Inter-Regular-6d" transform="translate(2192.96875 0)"/>
    <use xlink:href="#Inter-Regular-69" transform="translate(2280.566406 0)"/>
    <use xlink:href="#Inter-Regular-6c" transform="translate(2304.785156 0)"/>
    <use xlink:href="#Inter-Regular-6c" transform="translate(2329.003906 0)"/>
    <use xlink:href="#Inter-Regular-69" transform="translate(2353.222656 0)"/>
    <use xlink:href="#Inter-Regular-73" transform="translate(2377.441406 0)"/>
    <use xlink:href="#Inter-Regular-65" transform="translate(2430.224609 0)"/>
    <use xlink:href="#Inter-Regular-63" transform="translate(2488.525391 0)"/>
    <use xlink:href="#Inter-Regular-6f" transform="translate(2545.654297 0)"/>
    <use xlink:href="#Inter-Regular-6e" transform="translate(2605.615234 0)"/>
    <use xlink:href="#Inter-Regular-64" transform="translate(2664.697266 0)"/>
    <use xlink:href="#Inter-Regular-20" transform="translate(2725.927734 0)"/>
    <use xlink:href="#Inter-Regular-54" transform="translate(2754.052734 0)"/>
    <use xlink:href="#Inter-Regular-54" transform="translate(2818.603516 0)"/>
    <use xlink:href="#Inter-Regular-46" transform="translate(2883.154297 0)"/>
    <use xlink:href="#Inter-Regular-54" transform="translate(2942.1875 0)"/>
    <use xlink:href="#Inter-Regular-20" transform="translate(3006.738281 0)"/>
    <use xlink:href="#Inter-Regular-61" transform="translate(3034.863281 0)"/>
    <use xlink:href="#Inter-Regular-6e" transform="translate(3091.015625 0)"/>
    <use xlink:href="#Inter-Regular-64" transform="translate(3150.097656 0)"/>
    <use xlink:href="#Inter-Regular-20" transform="translate(3211.328125 0)"/>
    <use xlink:href="#Inter-Regular-69" transform="translate(3239.453125 0)"/>
    <use xlink:href="#Inter-Regular-6e" transform="translate(3263.671875 0)"/>
    <use xlink:href="#Inter-Regular-73" transform="translate(3322.753906 0)"/>
    <use xlink:href="#Inter-Regular-69" transform="translate(3375.537109 0)"/>
    <use xlink:href="#Inter-Regular-64" transform="translate(3399.755859 0)"/>
    <use xlink:href="#Inter-Regular-65" transform="translate(3460.986328 0)"/>
    <use xlink:href="#Inter-Regular-20" transform="translate(3519.287109 0)"/>
    <use xlink:href="#Inter-Regular-74" transform="translate(3547.412109 0)"/>
    <use xlink:href="#Inter-Regular-68" transform="translate(3580.126953 0)"/>
    <use xlink:href="#Inter-Regular-65" transform="translate(3639.257812 0)"/>
    <use xlink:href="#Inter-Regular-20" transform="translate(3697.558594 0)"/>
    <use xlink:href="#Inter-Regular-61" transform="translate(3725.683594 0)"/>
    <use xlink:href="#Inter-Regular-64" transform="translate(3781.835938 0)"/>
    <use xlink:href="#Inter-Regular-76" transform="translate(3843.066406 0)"/>
    <use xlink:href="#Inter-Regular-69" transform="translate(3899.267578 0)"/>
    <use xlink:href="#Inter-Regular-73" transform="translate(3923.486328 0)"/>
    <use xlink:href="#Inter-Regular-6f" transform="translate(3976.269531 0)"/>
    <use xlink:href="#Inter-Regular-72" transform="translate(4036.230469 0)"/>
    <use xlink:href="#Inter-Regular-79" transform="translate(4073.876953 0)"/>
    <use xlink:href="#Inter-Regular-20" transform="translate(4130.078125 0)"/>
    <use xlink:href="#Inter-Regular-64" transform="translate(4158.203125 0)"/>
    <use xlink:href="#Inter-Regular-65" transform="translate(4219.433594 0)"/>
    <use xlink:href="#Inter-Regular-63" transform="translate(4277.734375 0)"/>
    <use xlink:href="#Inter-Regular-6f" transform="translate(4334.863281 0)"/>
    <use xlink:href="#Inter-Regular-64" transform="translate(4394.824219 0)"/>
    <use xlink:href="#Inter-Regular-65" transform="translate(4456.054688 0)"/>
    <use xlink:href="#Inter-Regular-20" transform="translate(4514.355469 0)"/>
    <use xlink:href="#Inter-Regular-66" transform="translate(4542.480469 0)"/>
    <use xlink:href="#Inter-Regular-6c" transform="translate(4579.492188 0)"/>
    <use xlink:href="#Inter-Regular-6f" transform="translate(4603.710938 0)"/>
    <use xlink:href="#Inter-Regular-6f" transform="translate(4663.671875 0)"/>
    <use xlink:href="#Inter-Regular-72" transform="translate(4723.632812 0)"/>
   </g>
  </g>
 </g>
 <defs>
  <clipPath id="p4859df50d8">
   <rect x="129.755781" y="72.856" width="647.57" height="106.108"/>
  </clipPath>
  <clipPath id="p19cb4bcf56">
   <rect x="129.755781" y="269.204" width="647.57" height="106.108"/>
  </clipPath>
 </defs>
</svg>
